<?xml version="1.0" standalone="no"?>
<!DOCTYPE svg PUBLIC "-//W3C//DTD SVG 20010904//EN"
 "http://www.w3.org/TR/2001/REC-SVG-20010904/DTD/svg10.dtd">
<svg version="1.0" xmlns="http://www.w3.org/2000/svg"
 width="300.000000pt" height="574.000000pt" viewBox="0 0 300.000000 574.000000"
 preserveAspectRatio="xMidYMid meet">
<metadata>
Created by potrace 1.10, written by Peter Selinger 2001-2011
</metadata>
<g transform="translate(0.000000,574.000000) scale(0.100000,-0.100000)"
fill="#000000" stroke="none">
<path d="M1400 5251 l0 -488 -32 -7 c-18 -3 -56 -18 -85 -32 -44 -21 -54 -32
-69 -70 -22 -58 -8 -109 42 -153 l35 -32 -30 -46 c-53 -80 -50 -148 7 -194
l25 -19 -20 -23 c-62 -67 -70 -147 -22 -202 29 -33 30 -37 15 -53 -34 -38 -38
-75 -17 -132 19 -50 19 -57 6 -97 -23 -68 -19 -134 10 -178 l26 -37 -21 -42
c-48 -100 -13 -212 73 -231 32 -8 33 -10 7 -113 -47 -187 -126 -382 -302 -738
-195 -394 -248 -568 -248 -820 0 -209 47 -390 144 -549 52 -88 160 -205 228
-250 21 -14 55 -36 76 -50 120 -78 305 -135 442 -134 155 0 346 57 501 149
255 151 399 428 399 764 0 281 -66 477 -308 911 -130 234 -195 370 -260 545
-64 173 -111 352 -94 358 36 12 73 57 88 107 18 64 10 106 -32 167 l-27 39 20
42 c40 83 38 134 -8 183 l-20 21 25 38 c50 73 42 141 -19 174 l-31 16 28 54
c39 74 38 132 -2 173 -16 16 -30 32 -30 35 0 3 9 18 21 34 30 43 41 91 29 125
-10 25 -45 64 -59 64 -3 0 -13 4 -21 10 -12 7 -9 13 14 31 34 27 65 92 66 137
0 24 -8 42 -29 63 -25 24 -37 29 -80 29 l-51 0 0 455 c0 398 -2 455 -15 455
-17 0 -16 25 -16 -400 0 -408 2 -494 12 -506 12 -15 -49 -28 -66 -14 -14 12
-67 7 -162 -15 -99 -23 -93 -29 -95 88 -1 61 -3 80 -5 47 -3 -30 -9 -60 -14
-66 -7 -8 -6 -14 1 -19 5 -3 10 -19 10 -34 0 -15 4 -31 10 -37 6 -6 -3 -13
-25 -20 -27 -9 -33 -8 -25 1 6 7 8 20 4 29 -3 9 -1 16 6 16 6 0 8 -5 4 -12 -4
-7 -3 -8 5 -4 7 5 9 12 3 19 -18 23 -21 84 -5 106 10 15 11 21 2 19 -9 -2 -12
12 -10 52 2 30 5 59 8 64 4 5 2 7 -3 3 -5 -3 -8 20 -7 51 2 76 1 74 16 66 6
-4 4 1 -5 12 -11 13 -14 24 -8 34 5 9 5 19 -2 27 -6 7 -7 13 -2 13 5 0 9 13 9
29 0 16 -2 28 -5 26 -3 -2 -5 21 -5 50 0 33 4 51 10 47 6 -3 6 0 -1 9 -14 18
-9 236 5 253 8 10 7 17 -3 25 -8 7 -12 19 -9 27 3 8 -1 14 -11 14 -14 0 -16
-47 -16 -489z m517 -487 c34 -53 -32 -167 -105 -180 -82 -15 -226 -55 -240
-67 -13 -10 -14 -9 -5 8 6 11 13 59 16 106 7 108 26 157 58 155 13 0 61 4 108
10 98 11 145 3 168 -32z m-331 11 c-20 -21 -38 -113 -35 -185 1 -33 0 -62 -3
-65 -3 -3 -40 -8 -83 -12 l-78 -6 6 84 c10 142 20 155 130 175 20 3 40 10 43
15 3 5 12 9 20 9 14 0 14 -2 0 -15z m-215 -102 c-6 -21 -11 -62 -11 -91 0 -45
4 -57 28 -78 15 -14 22 -23 15 -20 -6 4 -14 2 -17 -3 -3 -5 -19 -8 -35 -7 -17
1 -27 -2 -24 -8 3 -5 1 -6 -5 -2 -24 15 -13 34 18 32 42 -3 23 12 -20 16 -28
2 -38 10 -57 43 -27 48 -29 73 -7 104 19 26 117 76 122 61 2 -5 -1 -26 -7 -47z
m509 -133 c20 -16 43 -43 50 -60 11 -26 9 -35 -11 -77 -24 -47 -25 -48 -119
-77 -52 -17 -98 -34 -101 -39 -3 -4 -10 -7 -15 -6 -5 2 -22 0 -39 -4 -67 -15
-95 -18 -219 -24 -149 -7 -156 -4 -156 77 0 90 47 129 175 143 85 9 236 47
252 62 18 19 24 19 17 0 -4 -8 -10 -15 -14 -15 -14 0 -31 -104 -28 -164 5 -90
22 -71 31 33 10 120 19 139 82 161 28 9 52 18 54 19 2 0 20 -12 41 -29z m46
-285 c27 -72 -4 -162 -63 -182 l-28 -10 6 91 c8 109 31 175 53 156 8 -6 22
-31 32 -55z m-82 47 c-16 -11 -23 -47 -30 -147 -4 -49 -8 -91 -9 -93 -7 -8
-186 -51 -237 -57 -52 -6 -71 -16 -50 -28 4 -2 2 -2 -5 -1 -7 2 -15 -1 -18 -6
-3 -5 -16 -9 -28 -9 -12 0 -46 -7 -76 -15 -43 -13 -57 -13 -70 -3 -10 8 -13 9
-8 0 4 -6 3 -14 -3 -18 -11 -7 -12 12 -2 35 8 17 92 21 104 5 5 -6 8 -5 8 3 0
7 4 10 10 7 5 -3 23 2 40 12 28 16 30 21 30 78 0 70 22 161 38 158 13 -3 250
65 272 78 18 10 50 12 34 1z m-481 -75 c16 10 147 9 144 -1 -4 -12 -87 -13
-87 -1 0 6 -4 5 -8 -1 -8 -14 -83 -36 -91 -28 -3 3 -6 11 -6 17 0 15 29 28 33
16 2 -5 9 -6 15 -2z m122 -34 c-4 -10 -10 -58 -12 -108 -3 -49 -7 -92 -8 -93
-8 -9 -177 -4 -186 5 -17 17 -23 90 -9 123 15 37 34 48 120 71 86 24 104 24
95 2z m464 -172 c32 -24 31 -81 -2 -124 -17 -23 -43 -38 -90 -54 -36 -13 -73
-23 -81 -23 -9 0 -15 -6 -13 -12 1 -7 -5 -11 -13 -10 -38 9 -77 3 -94 -13 -18
-18 -33 -20 -18 -2 6 7 7 30 2 62 -5 28 -9 69 -9 91 l-1 42 46 7 c32 4 44 10
40 20 -2 7 4 15 14 18 17 4 17 3 -1 -27 -10 -17 -17 -43 -14 -56 2 -14 6 -45
9 -69 5 -49 22 -74 32 -48 3 9 1 39 -6 67 -7 28 -9 66 -6 85 6 30 13 36 69 58
66 25 90 23 136 -12z m-327 -28 c-6 -2 -10 -9 -6 -14 3 -5 0 -9 -7 -9 -9 0
-10 -19 -6 -72 4 -40 9 -83 13 -95 5 -19 1 -22 -39 -28 -57 -9 -236 -14 -263
-8 -25 5 -44 41 -44 82 0 32 29 62 62 66 73 9 254 57 263 70 5 8 17 15 25 14
10 0 11 -2 2 -6z m318 -197 c50 -74 34 -148 -39 -186 -40 -20 -211 -70 -268
-78 -30 -4 -32 -2 -41 34 -6 22 -12 69 -16 106 l-5 67 32 6 c119 25 247 60
272 75 17 10 31 19 32 19 1 1 16 -19 33 -43z m-590 -49 c22 1 40 -2 40 -7 0
-4 -11 -7 -25 -5 -14 1 -25 -2 -25 -6 0 -10 -34 -7 -37 4 -5 12 -2 33 3 22 2
-6 22 -10 44 -8z m214 -2 c-4 -8 -10 -15 -15 -15 -22 0 -2 -153 24 -188 5 -7
7 -16 3 -19 -4 -4 -66 -7 -139 -8 l-132 0 -18 54 c-20 61 -15 116 14 131 10 6
56 15 101 21 131 16 149 19 143 30 -4 5 1 9 9 9 10 0 13 -6 10 -15z m393 -207
c34 -65 35 -129 3 -164 -14 -14 -38 -33 -54 -41 -75 -39 -237 -82 -368 -98
-32 -3 -58 -10 -58 -14 0 -4 -8 -8 -17 -8 -15 0 -15 1 -2 10 13 8 14 18 8 46
-7 31 -14 162 -10 199 0 6 13 12 29 12 27 0 104 14 252 45 41 9 98 27 125 40
28 13 54 22 59 21 5 -1 20 -23 33 -48z m-607 -49 c0 -8 5 -8 15 1 9 7 15 8 15
2 0 -11 -23 -22 -46 -22 -8 0 -14 7 -14 15 0 8 7 15 15 15 8 0 15 -5 15 -11z
m74 -66 c-3 -27 1 -81 9 -120 16 -84 15 -85 -66 -57 -79 27 -103 80 -74 163
13 36 53 59 109 60 26 1 27 0 22 -46z m476 -139 c0 -7 -7 -14 -15 -18 -8 -3
-15 -1 -15 5 0 6 -6 6 -17 0 -10 -5 -21 -9 -26 -10 -19 -1 -93 -25 -101 -33
-15 -12 -26 -10 -26 7 0 9 6 12 15 9 8 -4 15 -2 15 3 0 4 14 9 31 9 17 1 35 8
40 15 5 8 9 11 9 7 0 -4 12 -1 26 7 32 16 64 16 64 -1z m-2 -105 c16 -51 22
-87 18 -116 -5 -39 -78 -197 -97 -208 -11 -7 -43 105 -63 225 -9 52 -19 107
-22 123 -5 24 -3 27 23 28 15 0 44 6 63 13 19 8 39 13 45 11 5 -1 20 -35 33
-76z m-208 32 c0 -75 89 -420 135 -526 7 -16 32 -73 55 -125 23 -52 69 -147
103 -210 266 -502 306 -620 294 -875 -11 -248 -105 -423 -276 -514 -88 -47
-150 -61 -268 -61 -197 0 -330 48 -443 159 -116 114 -167 253 -177 477 -10
237 19 338 221 762 125 261 133 281 197 474 49 148 59 191 81 350 10 75 15 88
32 91 37 8 46 7 46 -2z m-139 -109 c-16 -26 -54 -70 -83 -98 -57 -54 -148
-128 -148 -120 0 2 14 44 31 93 18 48 39 117 49 153 l16 65 80 5 79 5 3 -28
c2 -18 -7 -45 -27 -75z m10 -54 c-6 -18 -13 -49 -16 -68 -17 -105 -36 -143
-101 -207 -36 -34 -97 -84 -137 -110 -40 -26 -73 -51 -75 -55 -2 -4 -10 -8
-19 -8 -8 0 -13 3 -11 8 45 91 77 167 83 191 5 25 26 46 96 97 90 66 179 157
179 183 0 8 3 12 6 8 3 -3 1 -21 -5 -39z m477 -258 c18 -41 32 -82 32 -91 0
-43 -68 -212 -93 -230 -12 -9 -11 -20 5 -31 11 -8 11 -9 0 -6 -8 2 -14 8 -14
13 0 6 -5 16 -11 24 -9 12 -9 13 1 7 19 -11 15 0 -27 88 -40 82 -95 209 -103
236 -3 8 12 42 32 75 20 33 44 88 55 123 l19 64 36 -99 c20 -54 51 -132 68
-173z m-536 -2 c-3 -13 -14 -36 -23 -53 -10 -16 -34 -70 -54 -120 -20 -49 -46
-100 -58 -113 -28 -31 -122 -95 -168 -115 -19 -9 -57 -29 -86 -46 l-52 -31 36
63 c19 34 41 76 47 92 35 84 42 95 80 116 92 51 185 120 232 173 27 30 50 55
51 55 0 1 -2 -9 -5 -21z m667 -271 c45 -90 81 -174 81 -187 0 -31 -26 -159
-40 -195 -13 -33 -22 -75 -21 -99 0 -24 -5 -18 -25 29 -14 35 -14 38 0 26 9
-7 16 -10 16 -6 0 5 -40 84 -90 176 -49 92 -90 171 -90 177 0 5 18 48 40 95
22 47 40 99 40 116 0 17 2 31 4 31 3 0 41 -73 85 -163z m-800 -83 c-8 -10 -14
-11 -19 -4 -6 10 -82 -133 -129 -245 -16 -38 -35 -60 -76 -90 -54 -38 -215
-130 -215 -121 0 4 82 205 117 286 13 30 30 42 132 92 64 32 132 73 151 91 28
27 37 32 43 20 5 -8 4 -20 -4 -29z m918 -136 c0 -7 31 -76 68 -153 82 -167 84
-185 29 -282 -22 -37 -41 -72 -43 -78 -6 -14 -31 -38 -35 -34 -2 2 -14 40 -26
84 -12 44 -36 109 -52 144 -27 59 -28 65 -15 95 26 56 49 138 53 185 2 25 3
47 4 49 1 9 17 0 17 -10z m-1088 -220 c-11 -21 -21 -38 -22 -38 -5 0 1 58 7
68 3 5 12 9 20 9 12 0 11 -7 -5 -39z m-29 -5 c0 -5 -13 -41 -30 -80 -16 -40
-32 -89 -36 -108 -5 -28 -23 -50 -78 -100 -63 -57 -180 -145 -191 -145 -3 0
-5 5 -5 11 0 5 5 7 10 4 6 -4 10 5 10 20 0 27 42 203 59 248 6 16 23 29 46 37
45 15 168 85 185 105 13 16 30 20 30 8z m1313 -223 c38 -113 57 -193 57 -243
0 -41 -5 -49 -47 -90 -27 -25 -70 -63 -98 -84 -27 -21 -56 -46 -63 -55 -17
-24 -27 -23 -29 2 -1 11 2 18 7 15 19 -12 29 146 15 258 -7 54 -6 59 29 107
20 28 48 80 62 116 15 36 30 62 34 57 4 -4 19 -42 33 -83z m-1390 -58 c-18
-12 -33 -103 -35 -210 -1 -84 -3 -96 -28 -130 -29 -40 -137 -142 -150 -142
-15 0 -39 158 -40 252 l0 57 58 34 c31 20 84 60 117 91 33 30 67 55 75 55 11
1 12 -1 3 -7z m1463 -256 c-3 -13 -10 -72 -16 -132 -5 -60 -20 -142 -33 -184
-21 -66 -29 -78 -62 -96 -20 -12 -65 -27 -99 -33 -33 -7 -87 -19 -118 -26 -72
-19 -73 -18 -58 0 7 9 19 14 25 11 7 -2 24 16 38 43 28 51 77 180 77 203 0 8
32 37 71 64 66 45 169 147 169 166 0 4 3 8 6 8 3 0 4 -11 0 -24z m-1470 -104
c-3 -3 -6 3 -6 13 0 12 -3 15 -9 10 -10 -10 1 -67 34 -178 16 -54 16 -62 0
-125 -10 -37 -26 -90 -36 -118 -19 -50 -23 -114 -7 -114 4 0 8 -6 8 -14 0 -8
7 -17 16 -20 8 -3 13 -9 11 -13 -3 -5 1 -14 9 -21 8 -7 14 -10 14 -7 0 5 14
-6 64 -51 14 -13 26 -20 26 -16 0 4 5 -1 11 -10 5 -10 17 -18 24 -18 8 0 15
-5 15 -10 0 -6 5 -9 11 -8 6 2 14 -3 16 -10 3 -8 -1 -10 -14 -5 -10 3 -20 9
-23 12 -3 3 -21 17 -40 30 -75 53 -223 199 -214 213 3 4 -1 11 -9 14 -9 3 -18
16 -21 30 -4 13 -11 24 -16 24 -6 0 -10 10 -9 23 0 14 2 17 6 7 3 -8 15 -25
26 -37 11 -13 17 -23 12 -23 -5 0 1 -9 14 -21 36 -34 33 -17 -9 46 -22 33 -40
64 -40 68 0 5 -8 21 -19 35 -10 15 -26 50 -34 79 l-15 51 94 95 c61 63 94 104
95 119 1 18 3 16 10 -11 6 -18 8 -36 5 -39z m62 -235 c-6 -34 61 -145 126
-206 29 -28 38 -47 50 -105 20 -95 27 -166 16 -166 -31 0 -190 118 -244 182
l-35 40 35 96 c18 54 34 116 34 140 0 27 4 41 10 37 6 -4 10 -12 8 -18z m1343
-89 c-5 -13 -15 -23 -22 -23 -8 0 -27 -25 -43 -55 -35 -66 -205 -239 -255
-260 -33 -13 -35 -13 -62 18 -16 17 -49 47 -74 67 l-46 34 43 22 c24 12 68 46
98 75 49 48 60 54 100 55 86 2 205 35 226 64 6 8 14 12 17 8 4 -3 7 -1 7 5 0
7 4 12 10 12 6 0 6 -9 1 -22z m-1168 -121 c4 3 7 1 7 -6 0 -7 5 -9 10 -6 6 3
11 0 11 -7 1 -7 2 -19 3 -27 2 -20 100 -69 166 -82 l59 -11 27 -67 c31 -79 53
-148 48 -154 -15 -14 -255 50 -278 74 -2 2 -7 31 -10 64 -14 126 -31 180 -69
225 -21 24 -21 24 -1 7 11 -9 24 -14 27 -10z m81 -51 c7 3 20 -2 29 -10 8 -8
17 -12 21 -9 3 4 6 -1 6 -10 0 -10 -5 -14 -15 -11 -8 4 -15 10 -15 16 0 5 -4
6 -10 3 -5 -3 -10 -2 -10 4 0 6 -6 8 -12 6 -19 -7 -42 11 -33 25 6 10 10 9 17
-3 5 -9 15 -14 22 -11z m598 -26 c-36 -22 -42 -24 -42 -12 0 11 39 30 60 31 8
1 0 -8 -18 -19z m-497 -16 c6 -1 28 -5 49 -8 22 -4 46 -12 55 -19 9 -7 12 -8
8 -1 -5 8 4 10 26 7 17 -2 38 -4 45 -5 20 -2 14 -18 -8 -18 -11 0 -20 5 -20
10 0 6 -13 4 -30 -5 -21 -11 -35 -13 -47 -5 -25 14 -75 33 -92 34 -8 1 -16 7
-19 15 -3 10 0 11 9 5 8 -5 19 -9 24 -10z m543 -86 c40 -34 72 -65 72 -68 0
-8 -151 -71 -210 -89 -19 -5 -78 -13 -130 -17 l-96 -6 -23 80 c-13 45 -29 89
-37 99 -7 10 -14 21 -14 24 0 3 57 9 128 13 70 4 145 11 167 15 66 14 68 13
143 -51z m252 22 c-6 -12 -22 -26 -35 -32 -14 -6 -22 -15 -18 -21 3 -6 1 -7
-4 -4 -6 4 -22 -3 -37 -14 -14 -11 -26 -17 -26 -12 0 4 -8 -1 -18 -13 -16 -18
-72 -49 -72 -39 0 6 54 60 58 57 7 -7 53 13 68 29 9 10 23 19 31 19 7 0 13 5
13 11 0 5 5 7 10 4 6 -3 10 0 10 9 0 12 9 20 28 25 1 1 -2 -8 -8 -19z m-970
-123 c11 3 34 -6 56 -23 20 -16 43 -29 51 -30 8 -1 22 -6 31 -10 9 -4 21 -8
26 -8 5 -1 11 -8 13 -16 3 -9 1 -11 -4 -5 -4 6 -17 11 -28 13 -33 4 -44 8 -51
15 -4 4 -16 7 -26 7 -10 0 -18 5 -18 12 0 6 -3 8 -7 5 -3 -4 -15 0 -25 10 -10
9 -18 13 -18 8 0 -4 -7 -2 -15 5 -8 7 -15 18 -14 24 0 8 2 8 5 0 3 -7 13 -10
24 -7z m624 -69 c-3 -5 -9 -6 -14 -3 -5 3 -11 1 -15 -5 -4 -6 -11 -8 -16 -5
-5 4 -9 2 -9 -4 0 -5 -8 -10 -17 -9 -10 0 -29 -3 -43 -7 -30 -9 -228 -15 -247
-8 -25 10 -13 18 22 17 19 -1 38 2 41 8 4 5 10 5 17 -1 7 -5 50 -7 97 -5 114
6 120 7 120 17 0 5 7 7 15 4 8 -4 17 -3 19 2 3 4 12 8 20 8 8 0 13 -4 10 -9z"/>
<path d="M1461 5725 c-2 -11 -4 -33 -5 -50 -2 -16 -4 -32 -5 -35 -8 -16 -8
-39 0 -34 5 3 9 -1 9 -9 0 -8 9 -22 20 -32 16 -14 18 -21 8 -33 -17 -20 9 -37
91 -62 87 -28 141 -35 141 -21 0 6 -13 11 -28 11 -16 0 -32 3 -36 7 -4 4 -13
8 -19 9 -7 0 -20 2 -29 2 -10 1 -18 7 -18 12 0 7 6 7 19 1 10 -6 21 -8 24 -4
4 3 13 0 22 -7 8 -7 15 -8 15 -4 0 5 15 9 33 9 l32 0 3 108 c3 107 3 107 -23
117 -47 18 -165 37 -165 27 0 -3 26 -11 58 -18 31 -7 60 -14 65 -15 4 -1 18
-2 32 -3 l25 -1 0 -106 c0 -105 0 -106 -22 -101 -13 3 -41 9 -63 12 -54 9
-113 32 -144 56 -23 18 -27 30 -32 102 -3 45 -7 73 -8 62z m92 -207 c4 1 7 -3
7 -9 0 -5 5 -7 10 -4 6 3 10 -1 10 -9 0 -13 -4 -14 -17 -6 -10 5 -31 14 -46
20 -16 5 -25 14 -22 20 4 7 14 6 28 -2 12 -7 25 -11 30 -10z"/>
<path d="M1459 5488 c-4 -71 -3 -142 3 -156 4 -9 7 25 7 76 1 50 -1 92 -4 92
-3 0 -5 -6 -6 -12z"/>
<path d="M1732 5332 c-2 -103 -4 -113 -19 -108 -10 2 -49 12 -88 21 -38 9 -87
27 -107 41 -45 29 -62 31 -30 4 23 -19 22 -47 -1 -34 -7 4 -3 -2 8 -13 24 -23
155 -66 202 -66 l33 0 0 -104 c0 -56 -3 -103 -7 -103 -25 1 -172 39 -193 50
-56 29 -60 37 -60 134 0 50 -4 86 -8 79 -4 -7 -7 -34 -6 -60 1 -26 -3 -54 -9
-62 -9 -12 -9 -13 1 -7 8 5 12 -1 12 -19 0 -14 10 -36 23 -49 27 -29 34 -51
12 -42 -9 3 -14 2 -11 -3 8 -12 140 -58 188 -66 21 -3 39 -1 43 5 6 10 -7 14
-32 11 -7 -1 -13 3 -13 8 0 6 -7 8 -15 5 -8 -3 -31 0 -52 7 -21 7 -44 14 -51
15 -17 3 -44 26 -37 32 2 3 11 0 18 -7 8 -6 26 -12 41 -13 14 -1 26 -5 26 -8
0 -7 27 -11 90 -13 l45 -2 3 108 c3 114 3 113 -47 120 -40 6 -36 25 4 20 23
-2 37 1 41 10 2 7 3 60 1 118 l-3 104 -2 -113z m-175 -84 c15 -6 37 -13 48
-15 32 -5 45 -12 45 -22 0 -5 -8 -8 -17 -6 -10 2 -23 4 -30 4 -6 1 -18 7 -25
14 -7 7 -21 13 -30 13 -33 2 -38 4 -38 14 0 13 12 13 47 -2z"/>
</g>
</svg>
