<?xml version="1.0" encoding="utf-8"?>
<!-- Generator: Adobe Illustrator 26.5.0, SVG Export Plug-In . SVG Version: 6.00 Build 0)  -->
<svg version="1.1"
	 id="svg2443" xmlns:rdf="http://www.w3.org/1999/02/22-rdf-syntax-ns#" xmlns:svg="http://www.w3.org/2000/svg" xmlns:cc="http://creativecommons.org/ns#" xmlns:dc="http://purl.org/dc/elements/1.1/"
	 xmlns="http://www.w3.org/2000/svg" xmlns:xlink="http://www.w3.org/1999/xlink" x="0px" y="0px" viewBox="0 0 512 512"
	 style="enable-background:new 0 0 512 512;" xml:space="preserve">
<style type="text/css">
	.st0{fill:#231F20;}
	.st1{fill:url(#path2520_00000051351479887228755580000016596718209358129080_);}
	.st2{fill:url(#path2546_00000108304678791110233450000018294100226554183815_);}
	.st3{fill:url(#path2572_00000076583487924715057330000014368229550928653488_);}
	.st4{fill:url(#path2596_00000011724465373818144480000002500147242135542702_);}
	.st5{fill:url(#path2632_00000148623372455948832160000009897008847015761835_);}
	.st6{fill:url(#path2660_00000128468976267632088560000003818927241726796929_);}
	.st7{fill:url(#path2682_00000141413663015651130630000013693636332515991944_);}
	.st8{fill:url(#path2708_00000137835040563337319890000004563969706200433844_);}
	.st9{fill:url(#path2738_00000127032412038245478170000007114019250099608729_);}
	.st10{fill:url(#path2764_00000075148993671098470100000002477361318671185051_);}
	.st11{fill:#7F7D7E;}
	.st12{fill:url(#path2810_00000104671721973328544790000016410401393279389600_);}
	.st13{fill:url(#path2832_00000034771441762319133160000007298353051416831668_);}
	.st14{fill:url(#path2864_00000146497412415833419690000016172323782998384271_);}
	.st15{fill:url(#path2890_00000125603152976157717600000011781102023062350215_);}
	.st16{fill:url(#path2918_00000166655139437490078610000015916372064334213800_);}
	.st17{fill:url(#path2942_00000102520753029876642350000013345912454290311843_);}
	.st18{fill:url(#path2966_00000140004143279816017980000014280664502075853995_);}
	.st19{fill:url(#path2992_00000038387772874296922640000018141874725898577564_);}
	.st20{fill:url(#path3016_00000063631539892658255010000005119519063153888176_);}
	.st21{fill:url(#path3040_00000136386841787698258030000000472441031848569752_);}
	.st22{fill:url(#path3064_00000160186579781021867310000004173700566353437118_);}
	.st23{fill:url(#path3086_00000111182369217182369860000009514579968556541625_);}
	.st24{fill:url(#path3108_00000142148173312109512090000007302499704062017459_);}
	.st25{fill:url(#path3130_00000060024127899142708330000014877808477747806643_);}
	.st26{fill:url(#path3154_00000121273759673768233620000017247485326162739638_);}
	.st27{fill:url(#path3190_00000158006283187419241570000012556530770956866477_);}
	.st28{fill:url(#path3218_00000016769126535594468520000015636871895306343839_);}
	.st29{fill:#0D224A;}
</style>
<g>
	<g id="g3256" transform="matrix(3.9388469,0,0,4.1573985,-2268.3414,-166.33805)">
		<path id="path2494" class="st0" d="M667.84,115.95c-1.12-3.51-6.03-12.63-9.82-17.68c-0.84-0.98-0.56-1.68-0.14-1.96
			c0.42-0.42,1.82-1.54,3.51-3.51s2.1-4.21,0.98-7.3c-1.12-3.09-5.19-10.66-5.89-13.19c-0.98-2.95-0.98-4.07-0.56-5.61
			c0.7-1.82,1.68-1.96,2.39-1.82c0.42,0,0.7,0.42,0.7,0.7c0,0.84,0,1.82,0.84,3.93c1.26,3.23,4.49,5.47,5.47,5.89
			c0.7,0.28,0.84-0.28,0.84-0.56s-1.12-4.35-1.96-7.44c-0.84-3.23-1.12-3.93-1.96-4.63c-1.12-0.98-2.95-1.68-4.49-1.68
			c-3.37,0.14-4.91,3.37-5.05,3.65c-0.14,0.28-0.28,0.42-0.56,0.28c-0.98-0.7-3.79-3.09-4.07-4.49c-0.14-0.98-0.28-0.98-1.12-1.26
			c-3.37-1.26-6.31-2.53-9.4-3.09c-1.26-0.28-1.26-0.42-2.95,0c-2.67,0.56-4.21,0.98-6.03,2.1c-0.98,0.56-1.12,0.98-1.4,1.12
			c-0.14,0.28-0.42,0.56-0.7,0.56c-0.7,0.28-3.09,0.98-3.79,1.54c-0.56,0.28-0.84,0.7-0.56,1.12c0.42,0.98,1.82,3.09,2.39,3.65
			c0.42,0.28,1.26,0.56,1.4,0.56c0.28,0,0.42,0.14,0.42,0c0.14-0.14,0.14-0.42,0.56-0.84c0.7-0.42,1.82-0.84,2.53-0.84
			c0.56,0,0.84,0,0.98,0.14c0.14,0.14,0.84,0.84,0.98,1.4c0.28,0.7,0.14,0.84-0.28,0.98s-1.26,0.42-2.67,0.56
			c-1.12,0.14-1.54-0.28-1.54-0.28c0-0.14-0.28-0.14-0.42,0c-0.28,0.28-0.56,0.42-0.98,0.7c-0.28,0.14-0.42,0.42-0.14,0.84
			c0.84,1.26,1.68,2.81,2.67,3.09c0.84,0.28,1.12,0,1.96-0.7c0.84-0.56,1.12-0.56,1.4-0.42c0.28,0.14,0.7,0.56,0.56,0.98
			c-0.28,0.7-1.54,2.24-1.82,2.53c-0.28,0.28-0.56,0.56-0.98,0.28c-0.7-0.28-10.1-5.19-11.37-5.75c-1.4-0.56-2.39-0.7-3.65-0.84
			c-0.98,0-2.67,0-3.51,0.28c-0.7,0.14-0.98,0.42-1.68,0.98c-0.98,0.84-1.82,1.82-1.82,2.67c0,0.7,0.7,1.82,0.7,1.96
			c0.14,0.14,0.28,0.28,0.56,0.28c0.42,0,1.26-0.56,2.53-0.42c0.98,0.14,1.12,0.98,1.12,1.54c0,0.14,0.14,0.42,0.42,0.42
			c0.42,0,0.98,0,1.82,0.42c0.98,0.42,2.81,1.82,3.09,2.1c0.28,0.28,0.28,0.56-0.28,0.56c-2.24,0.28-5.75,0.98-7.3,1.4
			c-1.12,0.42-2.53,0.98-2.95,1.68c-0.56,0.98-1.12,2.39-1.4,3.51c-0.14,0.98,0.98,2.39,1.12,2.67s0.42,0.28,0.7,0.14
			c0.56-0.28,1.82-1.12,3.09-1.12c0.84,0,0.98,0.7,1.26,0.98c0.14,0.28,0.42,0.14,0.98-0.14c1.12-0.42,8.14-0.28,10.66-0.14
			c0.98,0,2.67,0.28,3.79,0.84c1.12,0.7,3.09,2.67,3.09,2.67s-2.81,4.63-4.21,7.3c-1.26,2.53-2.39,4.35-2.95,5.47
			c-0.42,0.98-0.84,2.39-0.84,3.51c0.14,1.54,0.14,2.53,0.14,3.09c0,0.7-0.7,0.7-1.4,0.98c-1.12,0.28-3.51,0.56-5.47,0.98
			c-1.68,0.42-2.39,0.84-2.81,2.25c-0.28,0.98-0.7,3.65-0.7,4.91c0,0.56,0,0.84,0.56,0.7c0.42-0.14,1.26-0.28,2.67-0.28
			c1.54-0.14,3.37-0.14,4.77-0.14c2.53,0,9.82,0.42,10.38,0.56c0.7,0,0.84,0,0.7-0.42c0-0.56-0.14-2.39-0.14-3.51
			c0-0.98-0.28-2.25,0.84-3.23c0.98-0.98,8.56-9.4,8.98-9.82c0.42-0.42,0.7-0.84,1.12-0.28c0.42,0.56,6.73,5.05,8,5.89
			c1.26,0.98,2.39,1.12,3.79,1.12c0.98,0,1.26,1.82,0.42,1.96c-0.98,0.14-2.24,0.42-3.09,0.7c-1.4,0.42-1.96,0.84-2.39,1.82
			c-0.42,0.84-0.84,4.91-0.84,5.19c0,0.28,0,0.7,0.42,0.56c1.82-0.42,4.63-0.56,7.72-0.42c3.51,0.14,7.02,0.42,7.3,0.42
			c0.56,0,0.56,0,0.84-0.42c0.42-0.7,1.68-2.25,2.95-3.09C668.12,116.93,668.12,116.65,667.84,115.95 M654.37,91.26
			c-0.98,0.28-1.4,0-1.82-0.42c-0.42-0.42-3.93-4.77-5.19-5.89c-0.56-0.7-0.98-2.1,0.7-2.81c1.4-0.56,3.93-1.26,4.63-1.68
			c0.7-0.42,0.98-0.84,1.12-1.4c0-0.84,0-1.54,0-1.82s0.42-0.56,0.56-0.14c0.14,0.28,0.84,1.4,1.54,2.95
			c1.12,2.1,2.67,4.91,3.09,6.03c0.42,0.98,0.28,1.96-0.42,2.81C657.73,89.85,655.07,90.97,654.37,91.26"/>
		
			<linearGradient id="path2520_00000042730595604518559220000016019371076604316349_" gradientUnits="userSpaceOnUse" x1="732.0843" y1="132.8076" x2="676.4592" y2="218.004" gradientTransform="matrix(21.345 0 0 25.0982 -14960.4551 -3269.3723)">
			<stop  offset="0" style="stop-color:#D3D3D3"/>
			<stop  offset="0.3681" style="stop-color:#4F4C4C"/>
			<stop  offset="0.3681" style="stop-color:#4F4C4C"/>
			<stop  offset="0.8132" style="stop-color:#B0AFAF"/>
			<stop  offset="1" style="stop-color:#231F20"/>
		</linearGradient>
		<path id="path2520" style="fill:url(#path2520_00000042730595604518559220000016019371076604316349_);" d="M658.01,61.51
			c-2.81,0-5.47,3.09-5.05,7.86l0,0c0.42,2.95,0.84,4.21,1.54,6.17l0,0c0.42,0.98,5.19,9.82,5.33,10.8l0,0
			c0.28,1.26,0,2.24-0.98,3.09l0,0c-1.12,0.98-3.09,2.24-4.35,2.67l0,0c-0.28,0.14-0.56,0.14-0.84,0.14l0,0
			c-0.28,0-0.98-0.14-2.39-1.82l0,0l6.03,8.14c-0.84-0.98-1.12-1.82-0.98-2.53l0,0c0.14-0.7,1.26-1.4,2.53-2.39l0,0
			c1.26-0.98,2.67-2.24,3.23-3.93l0,0c0.14-0.56,0.28-0.98,0.28-1.4l0,0c0-1.54-0.84-3.37-1.68-5.33l0,0
			c-1.12-2.67-4.63-8.14-5.61-12.07l0,0c-0.28-0.98-0.42-1.82-0.42-2.67l0,0c0-2.24,0.98-3.65,2.1-4.07l0,0
			c0.56-0.28,0.98-0.28,1.4-0.28l0,0c0.7,0,0.98,0.14,1.26,0.28l0,0c0.28,0.14,0.42,0.56,0.42,0.98l0,0v0.14c0,0.14,0,0.28,0,0.56
			l0,0c0,0.98,0.14,2.95,1.12,4.91l0,0c1.26,2.53,3.65,3.93,4.49,4.21l0,0c0.14,0-2.1-8-2.53-9.4l0,0
			C662.79,63.33,661.52,61.65,658.01,61.51L658.01,61.51C658.15,61.51,658.15,61.51,658.01,61.51L658.01,61.51
			C658.15,61.51,658.01,61.51,658.01,61.51"/>
		
			<linearGradient id="path2546_00000065055495884320817940000002785513254708652718_" gradientUnits="userSpaceOnUse" x1="729.5738" y1="133.6955" x2="739.6591" y2="110.5967" gradientTransform="matrix(21.345 0 0 25.0982 -14960.4551 -3269.3723)">
			<stop  offset="0" style="stop-color:#B2B1B1"/>
			<stop  offset="0.2" style="stop-color:#B2B1B1"/>
			<stop  offset="0.9897" style="stop-color:#656263"/>
			<stop  offset="0.9897" style="stop-color:#656263"/>
			<stop  offset="1" style="stop-color:#656263"/>
		</linearGradient>
		<path id="path2546" style="fill:url(#path2546_00000065055495884320817940000002785513254708652718_);" d="M620.13,79.33
			c0.56,0.56-0.42,0.56-3.09,0.84l0,0c-2.95,0.28-5.75,0.84-7.16,1.4l0,0c-0.98,0.42-1.68,0.7-2.24,1.68l0,0
			c0,0-0.98,1.96-0.98,2.81l0,0c0,0.42,0,0.56,0.14,0.98l0,0c0.14,0.14,0.42-5.19,7.16-5.47l0,0
			C619.85,81.15,621.39,80.45,620.13,79.33L620.13,79.33L620.13,79.33L620.13,79.33z"/>
		
			<linearGradient id="path2572_00000105410736524155745450000003514699406472335247_" gradientUnits="userSpaceOnUse" x1="731.8223" y1="132.93" x2="719.4417" y2="131.7601" gradientTransform="matrix(21.345 0 0 25.0982 -14960.4551 -3269.3723)">
			<stop  offset="0" style="stop-color:#4F4C4C"/>
			<stop  offset="0.3586" style="stop-color:#FFFFFF"/>
			<stop  offset="0.3586" style="stop-color:#FFFFFF"/>
			<stop  offset="0.8241" style="stop-color:#4F4C4C"/>
			<stop  offset="1" style="stop-color:#393536"/>
		</linearGradient>
		<path id="path2572" style="fill:url(#path2572_00000105410736524155745450000003514699406472335247_);" d="M658.3,64.03
			c-0.42,0-0.84,0.14-1.26,0.28l0,0c-0.98,0.42-1.82,1.54-1.82,3.65l0,0v0.56c0,0,0.14-1.4,0.42-2.1l0,0c0.7-1.82,1.68-2.1,2.53-2.1
			l0,0c0.56,0,0.84,0.14,0.98,0.42l0,0c0.14,0.14,0.28,0.42,0.28,0.7l0,0c0,0.84,0,1.68,0.84,3.79l0,0c0,0.14,0.14,0.28,0.14,0.42
			l0,0c-0.7-1.68-0.84-3.09-0.84-3.93l0,0c0-0.28,0-0.56,0-0.56l0,0C659.56,64.18,658.86,64.03,658.3,64.03L658.3,64.03L658.3,64.03
			"/>
		
			<linearGradient id="path2596_00000113353283651654535290000017591435557567438771_" gradientUnits="userSpaceOnUse" x1="730.008" y1="133.8618" x2="740.0484" y2="110.8654" gradientTransform="matrix(21.345 0 0 25.0982 -14960.4551 -3269.3723)">
			<stop  offset="0" style="stop-color:#D3D3D3"/>
			<stop  offset="0.3681" style="stop-color:#B2B1B1"/>
			<stop  offset="0.9897" style="stop-color:#231F20"/>
			<stop  offset="1" style="stop-color:#231F20"/>
		</linearGradient>
		<path id="path2596" style="fill:url(#path2596_00000113353283651654535290000017591435557567438771_);" d="M620.41,79.61
			c0.28,0.56-0.7,0.42-3.37,0.7l0,0c-2.95,0.28-5.75,0.84-7.16,1.26l0,0c-0.98,0.42-1.68,0.7-2.24,1.68l0,0c0,0-0.98,1.96-0.98,2.81
			l0,0c0,0.42,0,0.56,0.28,0.98l0,0c0.28,0.56,0.56,0.56,0.98,0.28l0,0c0.42-0.28,1.82-0.98,2.95-0.98l0,0
			c0.98,0,1.26,0.56,1.4,0.98l0,0c0.14,0.28,0.56,0.14,0.56,0.14l0,0c0.42-0.14,0.84-0.28,2.24-0.28l0,0c1.68-0.14,8.28,0,10.8,0
			l0,0c2.24,0,10.8,6.88,10.94,6.88l0,0l0.42-0.98C633.88,90.69,623.08,81.99,620.41,79.61L620.41,79.61L620.41,79.61L620.41,79.61z
			"/>
		
			<linearGradient id="path2632_00000169526889380627429670000004940895323898976681_" gradientUnits="userSpaceOnUse" x1="731.5632" y1="135.4501" x2="549.2357" y2="-50.0361" gradientTransform="matrix(21.345 0 0 25.0982 -14960.4551 -3269.3723)">
			<stop  offset="0" style="stop-color:#918F90"/>
			<stop  offset="0.1209" style="stop-color:#9C9A9B"/>
			<stop  offset="0.1209" style="stop-color:#9C9A9B"/>
			<stop  offset="0.1703" style="stop-color:#7B7979"/>
			<stop  offset="0.3077" style="stop-color:#918F90"/>
			<stop  offset="0.4725" style="stop-color:#F4F4F4"/>
			<stop  offset="0.8407" style="stop-color:#7F7D7E"/>
			<stop  offset="0.8407" style="stop-color:#7F7D7E"/>
			<stop  offset="0.9615" style="stop-color:#4F4C4C"/>
			<stop  offset="1" style="stop-color:#4F4C4C"/>
		</linearGradient>
		<path id="path2632" style="fill:url(#path2632_00000169526889380627429670000004940895323898976681_);" d="M611.71,69.65
			c-0.56,0.14-0.98,0.14-1.4,0.7l0,0c-0.56,0.56-1.54,1.12-1.82,1.96l0,0c-0.14,0.28-0.28,0.56-0.14,0.7l0,0
			c0,0.42,0.28,0.7,0.28,0.84l0,0c0.14,0.14,0.28,0.14,0.56,0.14l0,0c0.56-0.14,1.54-0.28,2.24-0.28l0,0c0.42,0,0.98,0.14,1.26,0.42
			l0,0c0.42,0.42,0.42,0.84,0.42,0.98l0,0c0,0.14,0,0.28,0.28,0.28l0,0c0.42,0,0.84,0,1.26,0.14l0,0c1.26,0.28,3.09,1.26,4.63,2.95
			l0,0c3.09,2.95,7.02,7.16,10.66,9.96l0,0c1.82,1.4,4.91,3.23,5.89,4.35l0,0c0.14,0.14-0.28,0.28-0.56,0.14l0,0
			c-0.14-0.14-1.82-1.4-2.24-1.54l0,0c-0.28-0.14-0.7,0-0.98,0.56l0,0c-2.95,3.93-6.17,10.66-7.58,13.75l0,0
			c-0.28,0.84-0.56,1.68-0.56,2.53l0,0c0,0.98,0.14,2.67,0.14,3.37l0,0c0,0.84-0.14,0.98-1.12,1.26l0,0
			c-1.68,0.28-5.47,0.98-6.45,1.12l0,0c-0.84,0.14-1.26,0.56-1.54,1.26l0,0c-0.42,1.12-0.84,3.09-0.84,3.51l0,0
			c0,0.28,0.14,0.56,0.42,0.42l0,0c1.4-0.42,3.51-0.7,6.59-0.56l0,0c3.09,0,8.28,0.56,8.98,0.7l0,0c0.28,0,0.56,0,0.56-0.28l0,0
			c0-0.28-0.14-1.68-0.14-3.51l0,0c0-1.82,1.54-3.09,3.79-5.47l0,0c2.24-2.39,7.58-7.58,7.72-7.72l0,0c0.14-0.14,0.28-0.28,0-0.56
			l0,0c-0.42-0.42-2.1-2.1-2.24-2.39l0,0c-0.14-0.14-0.28-0.42-0.28-0.56l0,0c0.14-0.14,0.28,0,0.56,0.28l0,0
			c0.98,0.84,12.35,9.96,13.19,10.24l0,0c0.84,0.42,1.26,0.42,1.96,0.56l0,0c0.56,0.14,0.98,0.98,0.98,1.4l0,0
			c0.14,0.7,0,1.4-0.84,1.54l0,0c-0.84,0.28-2.95,0.56-3.51,0.84l0,0c-0.84,0.28-1.12,0.56-1.54,1.26l0,0
			c-0.28,0.84-0.7,3.09-0.84,3.23l0,0c0,0.56,0.14,0.56,0.56,0.42l0,0c0.56-0.14,0.98-0.28,3.09-0.42l0,0
			c3.65-0.14,9.26,0.42,9.82,0.42l0,0c0.28,0,0.42-0.28,0.56-0.42l0,0c0.84-1.26,0.56-1.68,1.54-2.53l0,0
			c0.56-0.42,0.84-0.56,0.42-1.26l0,0c-3.37-7.72-6.59-12.91-11.79-19.5l0,0c-3.23-4.35-7.16-9.12-8.56-10.52l0,0l-15.57-8.98
			c-0.98-0.42-8.14-4.21-9.4-4.77l0,0c-1.26-0.7-2.24-1.12-3.51-1.4l0,0c-0.98-0.28-1.82-0.28-2.67-0.28l0,0
			C613.11,69.51,612.41,69.51,611.71,69.65"/>
		
			<radialGradient id="path2660_00000105402882658713167600000015109008271632165814_" cx="730.3286" cy="133.1472" r="41.4721" gradientTransform="matrix(21.345 0 0 25.0982 -14960.4551 -3269.3723)" gradientUnits="userSpaceOnUse">
			<stop  offset="0" style="stop-color:#FFFFFF"/>
			<stop  offset="0.467" style="stop-color:#FFFFFF"/>
			<stop  offset="0.7472" style="stop-color:#9C9A9B"/>
			<stop  offset="0.7472" style="stop-color:#9C9A9B"/>
			<stop  offset="0.8461" style="stop-color:#7B7979"/>
			<stop  offset="1" style="stop-color:#4F4C4C"/>
		</radialGradient>
		<path id="path2660" style="fill:url(#path2660_00000105402882658713167600000015109008271632165814_);" d="M629.25,62.21
			c-2.24,0.7-5.19,1.82-5.19,1.82l0,0v0.14l0,0l0.28,0.56l0,0c0,0,0.14,0.42,0.56,0.7l0,0c0.42,0.28,0.98,0.42,0.98,0.42l0,0
			c0.14,0,0.14,0,0.28-0.14l0,0c0,0,0.42-0.98,1.96-1.26l0,0c0.84-0.28,1.4-0.28,1.68-0.28l0,0c0.42,0,0.98,0.28,1.4,0.56l0,0
			c0.56,0.56,0.98,1.4,1.12,1.96l0,0c0.14,0.42,0,0.98-0.42,1.12l0,0c-0.42,0.28-1.68,0.56-2.53,0.7l0,0c-0.84,0.14-1.54,0-2.1-0.28
			l0,0c-0.14,0-0.14,0-0.28,0l0,0c-0.14,0.14-0.28,0.28-0.7,0.56l0,0c-0.14,0-0.14,0.14,0,0.28l0,0c0.14,0.14,0.98,1.82,1.68,2.24
			l0,0c0.7,0.42,0.98,0.28,1.54-0.14l0,0c0.7-0.42,1.12-0.98,1.96-0.98l0,0c0.84,0,1.4,0.7,1.4,1.4l0,0c0.14,0.98-0.42,1.4-0.84,2.1
			l0,0c-0.42,0.56-0.98,1.26-1.4,1.82l0,0c-0.56,0.56-1.26,0.42-1.26,0.42l0,0c0,0,4.21,2.1,6.59,3.23l0,0
			c0.98,0.56,2.53,0,3.37-1.82l0,0c0.28-0.42,1.68-3.65,2.1-4.63l0,0c0.42-0.98,0.98-1.96,0-3.79l0,0
			c-0.98-1.82-3.51-5.19-4.63-6.45l0,0c-0.56-0.7-1.12-0.98-2.67-1.12l0,0c-0.14,0-0.42,0-0.56,0l0,0
			C632.76,61.51,631.21,61.79,629.25,62.21"/>
		
			<radialGradient id="path2682_00000000919255828200942930000005087557816863496880_" cx="730.481" cy="133.3842" r="14.6462" gradientTransform="matrix(21.345 0 0 24.1853 -14960.4551 -3156.3662)" gradientUnits="userSpaceOnUse">
			<stop  offset="0" style="stop-color:#FFFFFF"/>
			<stop  offset="0.2276" style="stop-color:#FFFFFF"/>
			<stop  offset="1" style="stop-color:#231F20"/>
		</radialGradient>
		<path id="path2682" style="fill:url(#path2682_00000000919255828200942930000005087557816863496880_);" d="M629.39,68.67
			c-0.84,0.14-1.54,0-2.1-0.28l0,0c-0.14,0-0.14,0-0.14,0l0,0c-0.14,0.14-0.28,0.28-0.7,0.42l0,0c-0.14,0-0.14,0.14,0,0.28l0,0
			c0.14,0.14,0.98,1.54,1.54,2.1l0,0c0.7,0.42,0.98,0.28,1.68-0.14l0,0c0.84-0.42,1.12-0.98,1.96-0.84l0,0l0.14-2.1
			C631.5,68.24,630.09,68.52,629.39,68.67"/>
		
			<radialGradient id="path2708_00000026849716308807594190000000199148512165415853_" cx="730.3307" cy="132.7132" r="17.2597" gradientTransform="matrix(21.345 0 0 25.0982 -14960.4551 -3269.3723)" gradientUnits="userSpaceOnUse">
			<stop  offset="0" style="stop-color:#FFFFFF"/>
			<stop  offset="0.5714" style="stop-color:#F7F7F7"/>
			<stop  offset="0.5714" style="stop-color:#F7F7F7"/>
			<stop  offset="0.8626" style="stop-color:#231F20"/>
			<stop  offset="1" style="stop-color:#231F20"/>
		</radialGradient>
		<path id="path2708" style="fill:url(#path2708_00000026849716308807594190000000199148512165415853_);" d="M624.2,64.18
			c0,0,0,0.14,0,0.28l0,0l0.28,0.56l0,0c0,0,0.14,0.28,0.56,0.56l0,0c0.42,0.28,0.84,0.28,0.98,0.42l0,0c0.14,0,0.14,0,0.28-0.14
			l0,0c0,0,0.42-0.98,1.96-1.26l0,0c0.84-0.28,1.4-0.28,1.68-0.28l0,0l-0.7-1.82C627.01,63.05,624.2,64.03,624.2,64.18"/>
		
			<radialGradient id="path2738_00000160899302560815230160000016611333500570842522_" cx="730.8046" cy="133.1814" r="57.1741" gradientTransform="matrix(21.345 0 0 25.0982 -14960.4551 -3269.3723)" gradientUnits="userSpaceOnUse">
			<stop  offset="0" style="stop-color:#FFFFFF"/>
			<stop  offset="0.2527" style="stop-color:#FFFFFF"/>
			<stop  offset="0.3461" style="stop-color:#A7A6A6"/>
			<stop  offset="0.3461" style="stop-color:#A7A6A6"/>
			<stop  offset="0.4121" style="stop-color:#7B7979"/>
			<stop  offset="0.4725" style="stop-color:#4F4C4C"/>
			<stop  offset="1" style="stop-color:#4F4C4C"/>
		</radialGradient>
		<path id="path2738" style="fill:url(#path2738_00000160899302560815230160000016611333500570842522_);" d="M632.34,74
			c-0.42,0.56-0.98,1.26-1.4,1.82l0,0c-0.56,0.56-1.12,0.42-1.12,0.42l0,0c0,0,3.93,1.96,6.31,3.23l0,0
			c0.98,0.56,2.39,0.14,3.37-1.68l0,0c0.28-0.42,1.68-3.65,2.1-4.63l0,0l-8.56-1.12C633.32,72.73,632.76,73.44,632.34,74"/>
		
			<linearGradient id="path2764_00000139257118914618160670000007671221036811026864_" gradientUnits="userSpaceOnUse" x1="730.1375" y1="133.6378" x2="701.8252" y2="140.7158" gradientTransform="matrix(21.345 0 0 25.0982 -14960.4551 -3269.3723)">
			<stop  offset="0" style="stop-color:#F4F4F4"/>
			<stop  offset="0.2582" style="stop-color:#BDBCBC"/>
			<stop  offset="0.6483" style="stop-color:#F4F4F4"/>
			<stop  offset="0.8956" style="stop-color:#FFFFFF"/>
			<stop  offset="1" style="stop-color:#FFFFFF"/>
		</linearGradient>
		<path id="path2764" style="fill:url(#path2764_00000139257118914618160670000007671221036811026864_);" d="M619.43,84.52
			c-0.98,0-3.37,0.28-4.07,0.42l0,0c-0.7,0.14-1.68,0.98-1.82,1.12l0,0c-0.28,0.28-0.28,0.56,0,0.56l0,0c0.14,0,0.56,0,0.84,0l0,0
			c0.84-0.14,3.09-0.14,5.61-0.14l0,0c1.26,0,2.81,0,3.93,0l0,0c1.12,0,2.1,0,2.1,0l0,0c-0.98-0.98-1.82-2.39-2.1-2.39l0,0l0,0l0,0
			C623.36,84.24,619.71,84.52,619.43,84.52"/>
		<path id="path2776" class="st11" d="M613.4,86.77L613.4,86.77L613.4,86.77c-0.14,0-0.14-0.14-0.14-0.28s0.14-0.28,0.28-0.42
			c0.14-0.14,1.12-0.98,1.96-1.12c0.7-0.14,3.09-0.42,4.07-0.42c0.28,0,3.79-0.28,4.35-0.42l0,0c0.14,0,0.28,0.14,0.42,0.28
			s0.28,0.42,0.56,0.56c0.42,0.56,0.84,0.98,1.26,1.54l0.14,0.14h-0.14l0,0c-0.42,0-3.09,0-5.61,0c-0.14,0-0.28,0-0.42,0
			c-2.67,0-4.91,0.14-5.61,0.14c-0.14,0-0.42,0-0.56,0C613.54,86.77,613.54,86.77,613.4,86.77 M613.68,86.63c0.14,0,0.42,0,0.56,0
			c0.84-0.14,3.09-0.14,5.61-0.14c0.14,0,0.28,0,0.42,0c2.39,0,5.05,0,5.47,0c-0.7-0.84-1.26-1.68-1.68-2.1
			c-0.14-0.14-0.28-0.28-0.28-0.28l0,0c-0.56,0-3.93,0.28-4.21,0.28c-0.98,0-3.37,0.28-4.07,0.42c-0.7,0.14-1.68,0.98-1.82,1.12
			c-0.14,0.14-0.14,0.28-0.14,0.42C613.54,86.48,613.54,86.63,613.68,86.63C613.54,86.63,613.54,86.63,613.68,86.63"/>
		
			<linearGradient id="path2810_00000083770063825664419300000008814478558424981439_" gradientUnits="userSpaceOnUse" x1="764.7798" y1="142.824" x2="1062.4921" y2="505.5428" gradientTransform="matrix(9.3552 0 0 11.0013 -6530.144 -1511.968)">
			<stop  offset="0" style="stop-color:#FFFFFF"/>
			<stop  offset="0.069" style="stop-color:#E3E2E2"/>
			<stop  offset="0.1565" style="stop-color:#FFFFFF"/>
			<stop  offset="0.3297" style="stop-color:#D3D3D3"/>
			<stop  offset="0.3297" style="stop-color:#D3D3D3"/>
			<stop  offset="0.502" style="stop-color:#FFFFFF"/>
			<stop  offset="0.9796" style="stop-color:#BBBABA"/>
			<stop  offset="0.9796" style="stop-color:#BBBABA"/>
			<stop  offset="1" style="stop-color:#BBBABA"/>
		</linearGradient>
		<path id="path2810" style="fill:url(#path2810_00000083770063825664419300000008814478558424981439_);" d="M628.83,58.84
			c-0.98,0.56-0.98,1.12-1.54,1.54l0,0c-0.7,0.42-2.1,0.7-3.51,1.26l0,0c-0.84,0.42-0.84,0.42-0.7,0.98l0,0
			c0.14,0.14,0.7,1.12,0.98,1.12l0,0c0.28,0,0.7-0.14,0.98-0.28l0,0c0.42-0.14,3.37-1.26,5.75-1.82l0,0
			c2.67-0.56,5.33-0.7,6.45,0.42l0,0c1.54,1.54,4.21,5.19,5.05,6.74l0,0c0.84,1.54,0.7,2.24,0.14,3.79l0,0
			c-0.56,1.4-2.39,5.19-2.95,6.03l0,0c-0.56,0.84-1.12,1.12-2.81,0.56l0,0c-1.68-0.7-7.86-3.93-9.26-4.63l0,0
			c-0.98-0.42-4.77-2.39-7.58-3.79l0,0c-0.98-0.56-1.96-0.98-2.95-1.12l0,0c-2.1-0.56-4.49-0.28-5.47-0.14l0,0
			c-0.56,0.14-0.84,0.98-0.84,1.12l0,0c0,0.28,0.56,0.28,1.12,0.14l0,0c0.28,0,0.7,0,0.98,0l0,0c0.84,0,3.23,0.42,4.91,0.98l0,0
			c1.54,0.7,9.4,4.91,11.37,5.89l0,0c15.29,8.28,21.61,13.47,33.39,33.25l0,0c0.56,0.98,0.84,1.96,0,2.25l0,0
			c-1.12,0.42-6.17,1.26-7.72,1.82l0,0c-1.26,0.42-1.4,0.56-1.54,1.12l0,0c-0.28,0.7-0.56,2.1-0.42,2.39l0,0
			c0,0.14-0.14,0.28,0.14,0.28l0,0c1.4,0,6.45,0,10.38,0.42l0,0c0.56,0,0.56,0,0.84-0.42l0,0c0.42-0.56,1.68-2.1,2.67-2.81l0,0
			c0.42-0.28,0.14-0.84,0-0.98l0,0c-0.98-2.81-4.21-8.98-8.56-15.29l0,0c-4.21-6.17-11.37-14.59-12.35-16l0,0
			c-0.98-1.26-1.26-2.95,0.7-3.51l0,0c1.26-0.42,4.49-0.98,5.75-1.4l0,0c1.26-0.42,1.26-0.84,1.4-1.68l0,0
			c0.14-0.98-0.14-6.17-0.84-9.26l0,0c-0.14-0.7-0.56-1.12-0.98-1.54l0,0c-0.42-0.28-2.24-1.82-3.09-2.95l0,0
			c-0.98-1.26-1.54-2.53-1.82-3.37l0,0c0,0,0-0.14-0.28-0.42l0,0c-0.14-0.14-0.14-0.14-0.28-0.28l0,0
			c-1.82-1.12-8.56-3.09-9.96-3.09l0,0c-0.14,0-0.14,0-0.28,0l0,0C634.72,56.6,631.64,57.16,628.83,58.84"/>
		
			<linearGradient id="path2832_00000026871300328810938360000015730216167142520706_" gradientUnits="userSpaceOnUse" x1="729.6558" y1="132.9958" x2="863.1656" y2="259.8044" gradientTransform="matrix(21.345 0 0 25.0982 -14960.4551 -3269.3723)">
			<stop  offset="0" style="stop-color:#DEDEDE"/>
			<stop  offset="0.5069" style="stop-color:#4F4C4C"/>
			<stop  offset="1" style="stop-color:#DEDEDE"/>
		</linearGradient>
		<path id="path2832" style="fill:url(#path2832_00000026871300328810938360000015730216167142520706_);" d="M610.87,71.19
			c0.56,0,1.54,0,2.39,0l0,0c1.4,0.14,3.09,0.56,4.35,0.98l0,0c1.54,0.7,9.12,5.19,11.08,6.17l0,0c5.75,3.23,10.24,6.31,14.45,9.68
			l0,0c6.31,5.19,11.79,11.08,18.66,23.15l0,0c0.28,0.56,0.42,0.84,0.42,1.26l0,0c0,0.7-0.56,0.98-0.84,0.98l0,0
			c-1.12,0.42-6.03,1.4-7.44,1.96l0,0c-1.12,0.42-1.4,0.7-1.54,1.26l0,0c0,0.28-0.28,1.4-0.56,1.68l0,0
			c-0.28,0.28-0.84,0.42-1.4,0.42l0,0c-0.42,0-0.56,0-0.56-0.42l0,0c0-0.42,0.28-1.4,0.42-2.1l0,0c0.14-0.7,0.42-0.98,0.98-1.4l0,0
			c0.56-0.42,2.67-0.7,3.65-0.98l0,0c1.12-0.28,1.12-0.84,1.12-1.68l0,0c0,0.98-0.28,1.12-1.4,1.26l0,0
			c-1.12,0.28-3.09,0.56-3.65,0.98l0,0c-0.7,0.42-0.98,0.98-0.98,1.4l0,0c-0.42,1.54-0.7,2.81-0.7,3.09l0,0
			c0,0.42,0.14,0.42,0.56,0.42l0,0c0.42,0,1.26-0.14,2.95-0.28l0,0c0.42,0,0.42-0.56,0.42-0.98l0,0c0-0.28,0-0.84,0.14-1.12l0,0
			c0.14-0.28,0.42-0.56,0.7-0.7l0,0c0.84-0.28,5.33-1.4,7.58-2.1l0,0c0.98-0.28,1.4-0.7,1.26-1.54l0,0
			c-0.14-0.84-0.84-1.96-2.1-4.07l0,0c-1.26-2.1-3.09-4.91-5.19-8l0,0c-3.93-5.47-7.72-9.82-12.49-13.61l0,0
			c-3.51-2.81-7.16-5.05-9.96-6.59l0,0c-2.81-1.54-14.17-7.86-15.86-8.42l0,0c-1.54-0.56-2.95-0.7-4.07-0.84l0,0
			C612.27,70.91,611.57,71.05,610.87,71.19L610.87,71.19c-0.56-0.14-0.28-0.7-0.28-0.98l0,0C610.73,70.35,610.31,71.19,610.87,71.19
			"/>
		
			<linearGradient id="path2864_00000010991162072447785640000002269447277614152332_" gradientUnits="userSpaceOnUse" x1="730.5816" y1="133.9035" x2="678.8003" y2="211.3167" gradientTransform="matrix(21.345 0 0 25.0982 -14960.4551 -3269.3723)">
			<stop  offset="0" style="stop-color:#C8C7C8"/>
			<stop  offset="0.1" style="stop-color:#FFFFFF"/>
			<stop  offset="0.3492" style="stop-color:#F0F0F0"/>
			<stop  offset="0.5385" style="stop-color:#FFFFFF"/>
			<stop  offset="0.7143" style="stop-color:#393536"/>
			<stop  offset="0.8414" style="stop-color:#FFFFFF"/>
			<stop  offset="0.9103" style="stop-color:#514E4F"/>
			<stop  offset="1" style="stop-color:#868484"/>
		</linearGradient>
		<path id="path2864" style="fill:url(#path2864_00000010991162072447785640000002269447277614152332_);" d="M631.64,91.82
			c-0.42,0.56-2.67,4.07-4.49,7.44l0,0c-1.26,2.39-2.95,5.75-3.09,6.74l0,0c-0.28,0.84-0.42,1.4-0.28,2.39l0,0
			c0,0.84,0.14,2.25,0.28,3.09l0,0c0,0.98-0.14,1.26-1.12,1.54l0,0c-0.84,0.14-5.19,0.98-6.31,1.12l0,0
			c-0.98,0.28-1.4,0.84-1.68,1.54l0,0c-0.28,0.84-0.56,2.39-0.56,2.67l0,0c0,0.42,0,0.42,0.42,0.42l0,0c0.28,0,0.98-0.14,1.26-0.14
			l0,0c0.28,0,0.28-0.28,0.28-0.56l0,0c0.14-0.28,0.14-0.7,0.28-1.4l0,0c0.14-0.7,0.42-1.12,1.26-1.54l0,0
			c0.98-0.28,5.33-0.98,6.03-1.12l0,0c0.84-0.28,1.12-0.56,1.26-1.26l0,0c0.14-0.84-0.14-2.39-0.14-3.51l0,0c0-1.26,0-1.96,0.7-3.37
			l0,0c1.4-2.81,5.89-9.26,8.98-13.19l0,0c0,0-0.28-0.28-0.7-0.56l0,0c-0.42-0.28-0.98-0.84-1.26-0.84l0,0c-0.14,0-0.14,0-0.28,0
			l0,0C632.2,91.26,631.92,91.4,631.64,91.82"/>
		
			<linearGradient id="path2890_00000072243412596303363280000012369543941473679017_" gradientUnits="userSpaceOnUse" x1="730.5364" y1="134.4875" x2="744.1541" y2="142.5084" gradientTransform="matrix(21.345 0 0 25.0982 -14960.4551 -3269.3723)">
			<stop  offset="0" style="stop-color:#FFFFFF"/>
			<stop  offset="0.5207" style="stop-color:#CFCECE"/>
			<stop  offset="0.5207" style="stop-color:#CFCECE"/>
			<stop  offset="0.8352" style="stop-color:#4F4C4C"/>
			<stop  offset="1" style="stop-color:#393536"/>
		</linearGradient>
		<path id="path2890" style="fill:url(#path2890_00000072243412596303363280000012369543941473679017_);" d="M631.21,111.04
			c-0.84,1.82-0.98,2.95-0.98,3.65l0,0c0,0.84,0.14,0.98,0.14,0.98l0,0c0-0.84,0.28-1.4,0.84-2.25l0,0c0.7-0.98,1.68-1.96,3.09-3.23
			l0,0c2.24-2.39,7.58-7.58,7.86-7.86l0,0c0.14-0.14,0.28-0.28,0-0.56l0,0c-0.56-0.56-0.84-0.84-1.68-1.68l0,0
			c-0.56-0.56-0.98-0.84-0.98-0.98l0,0l0,0l0,0C639.21,98.97,633.18,105.85,631.21,111.04"/>
		
			<linearGradient id="path2918_00000054262984934668890230000002171163666070356669_" gradientUnits="userSpaceOnUse" x1="730.6618" y1="133.9798" x2="745.0909" y2="116.7049" gradientTransform="matrix(21.345 0 0 25.0982 -14960.4551 -3269.3723)">
			<stop  offset="0" style="stop-color:#FFFFFF"/>
			<stop  offset="0.2088" style="stop-color:#FFFFFF"/>
			<stop  offset="0.5" style="stop-color:#DEDEDE"/>
			<stop  offset="0.5" style="stop-color:#DEDEDE"/>
			<stop  offset="0.9451" style="stop-color:#9C9A9B"/>
			<stop  offset="1" style="stop-color:#959494"/>
		</linearGradient>
		<path id="path2918" style="fill:url(#path2918_00000054262984934668890230000002171163666070356669_);" d="M611.01,71.19
			l50.23,42.09c0.56-0.14,0.84-0.56,0.84-0.84l0,0c0-0.42,0-0.84-0.28-1.26l0,0c-7.02-12.21-12.21-17.82-18.66-23.01l0,0
			c-0.98-0.98-2.24-1.82-3.37-2.67l0,0c-3.23-2.39-6.88-4.77-11.08-7.16l0,0c-1.12-0.7-4.77-2.81-7.44-4.35l0,0
			c-1.54-0.98-3.09-1.68-3.51-1.82l0,0c-0.98-0.56-2.95-0.84-4.35-0.98l0,0c-0.56,0-0.98-0.14-1.4-0.14l0,0
			C611.57,71.05,611.15,71.19,611.01,71.19"/>
		
			<linearGradient id="path2942_00000149342549497360364270000000822846774957890998_" gradientUnits="userSpaceOnUse" x1="731.1887" y1="132.6245" x2="749.9999" y2="151.8692" gradientTransform="matrix(21.345 0 0 25.0982 -14960.4551 -3269.3723)">
			<stop  offset="0" style="stop-color:#231F20"/>
			<stop  offset="0.1793" style="stop-color:#F4F4F4"/>
			<stop  offset="0.5793" style="stop-color:#444041"/>
			<stop  offset="1" style="stop-color:#231F20"/>
		</linearGradient>
		<path id="path2942" style="fill:url(#path2942_00000149342549497360364270000000822846774957890998_);" d="M646.37,59.4
			c0.14,0.14,0.28,0.14,0.42,0.28l0,0c0.42,0.28,0.42,0.7,0.42,0.7l0,0c0.14,0.84,0.7,1.96,1.68,3.09l0,0
			c0.98,0.98,2.81,2.67,3.09,2.95l0,0c0.28,0.14,0.56,0.42,0.7,0.56l0,0c0.14-0.7,0.28-1.26,0.7-1.96l0,0
			c0,0.14-0.14,0.14-0.14,0.28l0,0c-0.14,0.14-0.28,0.28-0.56,0.28l0,0l0,0l0,0c-0.28,0-0.42-0.14-0.56-0.28l0,0
			c-0.98-0.84-3.79-2.95-4.21-4.91l0,0c-0.28-0.98,0-0.56-0.84-0.98l0,0c-0.28-0.14-0.56-0.28-0.84-0.28l0,0
			C646.23,59.26,646.23,59.26,646.37,59.4"/>
		
			<linearGradient id="path2966_00000131355769280341519260000015966915264104955070_" gradientUnits="userSpaceOnUse" x1="731.2206" y1="133.7523" x2="752.6202" y2="119.7027" gradientTransform="matrix(21.345 0 0 25.0982 -14960.4551 -3269.3723)">
			<stop  offset="0" style="stop-color:#231F20"/>
			<stop  offset="0.1793" style="stop-color:#F4F4F4"/>
			<stop  offset="0.5793" style="stop-color:#444041"/>
			<stop  offset="1" style="stop-color:#231F20"/>
		</linearGradient>
		<path id="path2966" style="fill:url(#path2966_00000131355769280341519260000015966915264104955070_);" d="M652.26,79.75
			c-1.26,0.42-4.63,0.98-5.89,1.4l0,0c-0.98,0.42-0.98,0.7-0.98,0.98l0,0l0,0c0,0.42,0.28,0.98,0.7,1.68l0,0
			c0.56,0.7,2.95,3.37,5.47,6.74l0,0c0.28,0.42,0.42,0.56,0.7,0.84l0,0c-0.14-0.14-3.79-4.91-5.05-6.17l0,0
			c-0.28-0.42-0.7-0.98-0.7-1.54l0,0c0-0.7,0.56-1.54,1.54-1.96l0,0c1.4-0.56,3.93-1.26,4.63-1.68l0,0
			c0.56-0.28,0.84-0.56,0.84-0.98l0,0C653.1,79.33,652.68,79.61,652.26,79.75"/>
		
			<linearGradient id="path2992_00000095330322703901918340000013913378436524428199_" gradientUnits="userSpaceOnUse" x1="731.4972" y1="132.7977" x2="759.614" y2="132.7977" gradientTransform="matrix(21.345 0 0 25.0982 -14960.4551 -3269.3723)">
			<stop  offset="0" style="stop-color:#656263"/>
			<stop  offset="0.2857" style="stop-color:#D3D3D3"/>
			<stop  offset="0.533" style="stop-color:#656263"/>
			<stop  offset="0.7582" style="stop-color:#393536"/>
			<stop  offset="1" style="stop-color:#231F20"/>
		</linearGradient>
		<path id="path2992" style="fill:url(#path2992_00000095330322703901918340000013913378436524428199_);" d="M658.15,61.51
			c-2.53,0-4.21,2.24-4.77,4.21l0,0c0.56-1.82,2.1-3.93,4.77-3.93l0,0c3.23,0,4.63,1.12,5.19,3.09l0,0
			c-0.56-2.53-2.81-3.37-4.91-3.37l0,0C658.3,61.51,658.15,61.51,658.15,61.51"/>
		
			<linearGradient id="path3016_00000117668183406115619580000009842405316823963580_" gradientUnits="userSpaceOnUse" x1="729.6185" y1="134.8355" x2="794.4475" y2="134.8355" gradientTransform="matrix(21.345 0 0 25.0982 -14960.4551 -3269.3723)">
			<stop  offset="0" style="stop-color:#231F20"/>
			<stop  offset="0.1793" style="stop-color:#9E9D9D"/>
			<stop  offset="0.5793" style="stop-color:#444041"/>
			<stop  offset="1" style="stop-color:#231F20"/>
		</linearGradient>
		<path id="path3016" style="fill:url(#path3016_00000117668183406115619580000009842405316823963580_);" d="M634.3,110.48
			c-2.53,2.67-3.65,3.37-3.65,5.05l0,0c0,0.98,0.14,3.23,0.14,3.65l0,0c0,0.28,0,0.56-0.42,0.7l0,0c-0.28,0.14-0.56,0.14-0.7,0.14
			l0,0c-0.7,0-7.3-0.7-9.68-0.7l0,0c-2.39,0-4.35,0.28-5.47,0.56l0,0c-0.28,0-0.7,0-0.98-0.28l0,0c-0.14-0.14-0.14-0.28-0.14-0.42
			l0,0c0,0.42-0.14,0.98-0.14,1.12l0,0c0.42-0.14,1.4-0.28,2.81-0.28l0,0c1.68-0.14,3.51-0.14,4.77-0.14l0,0
			c1.12,0,10.52,0.56,10.52,0.56l0,0c0-0.7-0.14-2.39-0.14-3.37l0,0c0-0.28,0-0.28,0-0.98l0,0c0-0.84,0.14-1.82,0.98-2.67l0,0
			c0.42-0.56,2.1-2.39,3.93-4.35l0,0C635.28,109.5,634.72,110.06,634.3,110.48"/>
		
			<linearGradient id="path3040_00000056413686948520394500000007786956489914418561_" gradientUnits="userSpaceOnUse" x1="730.9692" y1="134.4861" x2="759.9645" y2="134.4861" gradientTransform="matrix(21.345 0 0 25.0982 -14960.4551 -3269.3723)">
			<stop  offset="0" style="stop-color:#231F20"/>
			<stop  offset="0.1793" style="stop-color:#9E9D9D"/>
			<stop  offset="0.5793" style="stop-color:#444041"/>
			<stop  offset="1" style="stop-color:#231F20"/>
		</linearGradient>
		<path id="path3040" style="fill:url(#path3040_00000056413686948520394500000007786956489914418561_);" d="M642.02,102.76
			c0.28,0,0.56,0.14,0.7,0.42l0,0c0.56,0.42,6.73,5.05,7.86,5.75l0,0c0.56,0.42,0.98,0.7,1.54,0.84l0,0
			c-0.42-0.28-0.98-0.84-1.82-1.4l0,0c-1.12-0.98-2.81-2.1-4.21-3.23l0,0c-1.26-0.98-2.67-2.1-3.65-2.95l0,0
			C642.44,102.48,642.16,102.76,642.02,102.76"/>
		
			<linearGradient id="path3064_00000168088065725073387950000003558172179042812076_" gradientUnits="userSpaceOnUse" x1="731.2869" y1="134.5308" x2="784.5452" y2="134.5308" gradientTransform="matrix(21.345 0 0 25.0982 -14960.4551 -3269.3723)">
			<stop  offset="0" style="stop-color:#231F20"/>
			<stop  offset="0.1793" style="stop-color:#9E9D9D"/>
			<stop  offset="0.5793" style="stop-color:#444041"/>
			<stop  offset="1" style="stop-color:#231F20"/>
		</linearGradient>
		<path id="path3064" style="fill:url(#path3064_00000168088065725073387950000003558172179042812076_);" d="M656.89,96.31
			c0,0.14-0.14,0.42-0.14,0.7l0,0c0,0.42,0.14,0.98,0.7,1.54l0,0c0.28,0.42,0.56,0.84,0.98,1.12l0,0c4.35,6.31,7.3,12.49,8.42,15.29
			l0,0c0.28,0.7,0.28,0.98,0,1.26l0,0c0,0-2.24,2.39-2.53,2.81l0,0c-0.14,0.14-0.28,0.28-0.42,0.42l0,0
			c-0.14,0.14-0.56,0.28-0.98,0.28l0,0c-3.23-0.28-7.02-0.42-8.84-0.42l0,0c-2.39,0-3.65,0.28-4.49,0.28l0,0
			c-0.42,0-0.7-0.14-0.84-0.14l0,0l0,0l0,0c0,0.42,0,0.56,0,0.7l0,0c1.4-0.28,3.23-0.42,5.47-0.42l0,0c0.7,0,1.26,0,2.1,0l0,0
			c3.51,0.14,7.58,0.42,7.58,0.42l0,0c0,0,1.96-2.53,3.09-3.51l0,0c0.28-0.14,0.28-0.14,0.28-0.28l0,0c0-0.14,0-0.28-0.14-0.7l0,0
			c-1.26-3.51-6.03-12.49-9.68-17.4l0,0c-0.42-0.56-0.7-0.98-0.7-1.54l0,0c0-0.56,0.28-0.98,0.7-1.12l0,0
			c0.28-0.28,0.98-0.84,1.68-1.54l0,0C658.01,95.18,657.03,96.03,656.89,96.31"/>
		
			<linearGradient id="path3086_00000008868727285685063240000015589688048541242295_" gradientUnits="userSpaceOnUse" x1="729.5735" y1="133.8203" x2="785.0927" y2="133.8203" gradientTransform="matrix(21.345 0 0 25.0982 -14960.4551 -3269.3723)">
			<stop  offset="0" style="stop-color:#7B7979"/>
			<stop  offset="0.1793" style="stop-color:#D3D3D3"/>
			<stop  offset="1" style="stop-color:#231F20"/>
		</linearGradient>
		<path id="path3086" style="fill:url(#path3086_00000008868727285685063240000015589688048541242295_);" d="M614.8,87.47
			c-1.4,0.14-2.1,0.28-2.24,0.28l0,0c-0.14,0-0.28,0-0.28,0l0,0c0,0,0.14,0.14,0.14,0.28l0,0h0.14l0,0
			c0.84-0.28,2.81-0.42,5.19-0.42l0,0c2.24,0,4.77,0,6.03,0.14l0,0c1.12,0,2.81,0.28,4.07,0.98l0,0c1.12,0.7,3.79,2.53,3.93,2.39
			l0,0c-0.98-0.84-2.24-1.4-3.09-2.1l0,0c-1.26-0.84-2.67-1.4-3.09-1.4l0,0c-4.07,0-4.07,0-6.45,0l0,0
			C617.32,87.33,615.36,87.47,614.8,87.47"/>
		
			<linearGradient id="path3108_00000142878005652498940900000017506095684347092652_" gradientUnits="userSpaceOnUse" x1="729.5927" y1="133.3488" x2="748.8638" y2="133.3488" gradientTransform="matrix(21.345 0 0 25.0982 -14960.4551 -3269.3723)">
			<stop  offset="0" style="stop-color:#444041"/>
			<stop  offset="0.1793" style="stop-color:#D3D3D3"/>
			<stop  offset="1" style="stop-color:#231F20"/>
		</linearGradient>
		<path id="path3108" style="fill:url(#path3108_00000142878005652498940900000017506095684347092652_);" d="M612.97,75.96
			c0,0,0.14,0,0.28,0l0,0c0.42,0,0.98,0,1.54,0.28l0,0c0.98,0.56,3.65,2.53,4.07,2.95l0,0c0.56,0.56,0.98,0.56,0.56,0.14l0,0
			c-1.54-1.4-3.79-3.09-5.05-3.23l0,0C613.96,75.82,613.4,75.82,612.97,75.96L612.97,75.96c-0.28-0.14-0.14-0.56-0.28-0.7l0,0
			C612.69,75.26,612.69,75.96,612.97,75.96"/>
		
			<linearGradient id="path3130_00000167357844769131828340000000195061865104378277_" gradientUnits="userSpaceOnUse" x1="729.3165" y1="133.7433" x2="742.3245" y2="133.7433" gradientTransform="matrix(21.345 0 0 25.0982 -14960.4551 -3269.3723)">
			<stop  offset="0" style="stop-color:#7B7979"/>
			<stop  offset="0.1793" style="stop-color:#BDBCBC"/>
			<stop  offset="1" style="stop-color:#444041"/>
		</linearGradient>
		<path id="path3130" style="fill:url(#path3130_00000167357844769131828340000000195061865104378277_);" d="M610.59,86.63
			c-0.84,0-2.53,0.98-2.95,0.98l0,0c-0.42,0.28-0.7,0.28-0.98,0l0,0c0.14,0.28,0.42,0.56,0.56,0.42l0,0
			c0.14-0.14,2.39-1.12,3.37-1.12l0,0c0.28,0,0.42,0,0.7,0.14l0,0C611.15,86.77,611.01,86.63,610.59,86.63L610.59,86.63
			L610.59,86.63"/>
		
			<linearGradient id="path3154_00000146485409849043019140000003360972046973861563_" gradientUnits="userSpaceOnUse" x1="730.429" y1="132.6259" x2="731.8434" y2="135.7355" gradientTransform="matrix(21.345 0 0 25.0982 -14960.4551 -3269.3723)">
			<stop  offset="0" style="stop-color:#FFFFFF"/>
			<stop  offset="0.1154" style="stop-color:#EEEEEE"/>
			<stop  offset="0.9066" style="stop-color:#5A5758"/>
			<stop  offset="1" style="stop-color:#5A5758"/>
		</linearGradient>
		<path id="path3154" style="fill:url(#path3154_00000146485409849043019140000003360972046973861563_);" d="M631.92,58.98
			c-0.56,0.14-2.1,0.56-2.24,0.56l0,0c-0.14,0-0.28,0.14-0.42,0.28l0,0c-0.14,0.14-0.14,0.56-0.14,0.84l0,0
			c0,0.14,0.28,0.28,0.42,0.14l0,0c0.42-0.14,2.39-0.98,2.67-0.98l0,0c0.14,0,0.28-0.14,0.28-0.28l0,0c0-0.14,0-0.28,0-0.42l0,0
			c0-0.14-0.14-0.28-0.28-0.28l0,0C632.2,58.98,632.06,58.98,631.92,58.98"/>
		<path id="path3166" class="st0" d="M631.92,59.12c0.28,0,0.42,0,0.42,0.14c0,0.14,0,0.28,0,0.28s0,0.14-0.14,0.14
			c-0.28,0.14-1.68,0.7-1.96,0.84c-0.28,0.14-0.56,0-0.56-0.14c0-0.14,0-0.42,0.14-0.42c0-0.14,0.14-0.14,0.28-0.28
			C630.23,59.69,631.64,59.26,631.92,59.12"/>
		
			<linearGradient id="path3190_00000008116716524184958740000016865351218115517625_" gradientUnits="userSpaceOnUse" x1="730.143" y1="133.0752" x2="782.6779" y2="133.0752" gradientTransform="matrix(21.345 0 0 25.0982 -14960.4551 -3269.3723)">
			<stop  offset="0" style="stop-color:#FFFFFF"/>
			<stop  offset="0.9796" style="stop-color:#231F20"/>
			<stop  offset="0.9796" style="stop-color:#231F20"/>
			<stop  offset="1" style="stop-color:#231F20"/>
		</linearGradient>
		<path id="path3190" style="fill:url(#path3190_00000008116716524184958740000016865351218115517625_);" d="M634.02,61.23
			c-4.07,0.14-7.58,1.82-9.68,2.67l0,0c1.4-0.56,4.91-1.96,8.84-2.1l0,0c2.1-0.14,3.09,0,3.79,0.98l0,0
			c1.12,1.26,3.79,4.77,4.77,6.59l0,0c0.42,0.7,0.56,1.26,0.56,1.82l0,0c-0.14,0.84-0.42,1.4-0.7,1.96l0,0
			c-0.42,0.98-1.96,3.93-2.24,4.49l0,0c-0.98,1.82-2.1,1.82-3.23,1.54l0,0c0,0,0.56,0.28,0.98,0.56l0,0
			c1.26,0.56,2.1-0.28,2.95-1.54l0,0c0.28-0.42,1.82-3.79,2.24-4.91l0,0c0.28-0.7,0.56-1.12,0.56-1.96l0,0
			c0-0.56-0.14-1.26-0.56-1.96l0,0c-0.98-1.82-3.65-5.33-4.77-6.74l0,0c-0.98-0.98-1.68-1.26-3.09-1.26l0,0
			C634.3,61.23,634.16,61.23,634.02,61.23"/>
		
			<linearGradient id="path3218_00000013871311714838293290000018091164961417330092_" gradientUnits="userSpaceOnUse" x1="730.0891" y1="134.8834" x2="749.561" y2="66.0149" gradientTransform="matrix(21.345 0 0 25.0982 -14960.4551 -3269.3723)">
			<stop  offset="0" style="stop-color:#E9E9E9"/>
			<stop  offset="0.0659" style="stop-color:#5A5758"/>
			<stop  offset="0.3517" style="stop-color:#918F90"/>
			<stop  offset="0.6044" style="stop-color:#B7B5B6"/>
			<stop  offset="0.9586" style="stop-color:#706D6E"/>
			<stop  offset="1" style="stop-color:#B2B1B1"/>
		</linearGradient>
		<path id="path3218" style="fill:url(#path3218_00000013871311714838293290000018091164961417330092_);" d="M629.39,99.67
			c-1.4,2.39-3.51,5.75-3.93,6.59l0,0c-0.28,0.7-0.42,1.26-0.42,2.1l0,0c0,0,0.14,3.65,0.14,3.79l0,0c0,0.56-0.14,0.84-0.28,1.12
			l0,0c-0.28,0.28-0.7,0.42-1.12,0.56l0,0c-0.98,0.14-5.05,0.84-6.03,0.98l0,0c-0.98,0.28-1.54,0.84-1.82,1.4l0,0
			c-0.14,0.56-0.42,1.4-0.42,1.82l0,0v0.28l0,0c0,0.42,0.14,0.42,0.14,0.42l0,0c0,0,4.77-0.42,7.44-0.14l0,0
			c2.81,0.14,6.73,0.56,6.73,0.56l0,0c0,0-4.07-0.84-6.88-0.98l0,0c-1.4-0.14-3.09,0-4.21,0l0,0c-1.26,0-2.24,0.14-2.24,0l0,0
			c0-0.14-0.14-0.28,0-0.7l0,0c0-0.28,0.14-0.56,0.14-0.84l0,0c0.14-0.7,0.56-1.26,1.54-1.54l0,0c0.98-0.28,5.05-0.98,5.75-0.98l0,0
			c0.84-0.14,1.12-0.56,1.26-0.98l0,0c0-0.14,0-0.7,0-0.98l0,0c0-0.84-0.14-2.95-0.14-3.09l0,0c0-1.26,0.14-1.96,0.98-3.37l0,0
			c1.26-2.25,6.31-9.68,8.7-12.35l0,0c0.14-0.14,0.28-0.28,0.56-0.28l0,0h-0.14l0,0c0,0-0.28-0.14-0.56-0.42l0,0
			C633.88,93.08,631.21,96.73,629.39,99.67"/>
	</g>
	<g>
		<path id="path3230" class="st29" d="M-0.05,398.94v45.74h11.93v-14.03h10.66c22.87,0,34.52-7.72,34.52-16.28
			c0-9.26-12.49-15.29-33.53-15.29H-0.05 M11.88,425.6v-21.47h9.26c9.68,0,22.45,1.68,22.45,10.24c0,5.75-4.21,11.37-23.99,11.37
			C19.59,425.6,11.88,425.6,11.88,425.6z"/>
		<path id="path3234" class="st29" d="M125.11,444.68v-5.75H95.64c-6.31,0-8.14-3.09-8.14-8.14v-6.73h34.52v-5.75H87.5v-13.61h35.92
			v-5.75H75.44v31.99c0,8.56,3.37,13.61,14.31,13.61L125.11,444.68L125.11,444.68z"/>
		<path id="path3238" class="st29" d="M201.3,398.94h-11.93v38.59c-3.23,1.12-7.58,2.24-14.03,2.24c-9.26,0-18.24-2.53-18.24-10.94
			v-29.89h-11.93v30.87c0,12.63,11.93,16.28,25.12,16.28c12.49,0,22.73-2.81,31.15-6.45v-40.69H201.3z"/>
		<path id="path3242" class="st29" d="M234.55,421.95c0-12.77,10.24-18.66,22.59-18.66c10.24,0,18.1,3.09,25.54,5.75v-7.58
			c-7.86-2.53-15.29-3.79-25.54-3.79c-19.92,0-36.2,9.68-36.2,24.27c0,15.43,16.28,24.13,36.2,24.13c9.96,0,20.35-2.24,26.8-3.93
			v-18.1H272.3v13.47c-4.35,1.54-7.44,2.81-14.17,2.81C244.37,440.33,234.55,433.18,234.55,421.95"/>
		<path id="path3246" class="st29" d="M355.08,444.68v-5.75h-29.47c-6.31,0-8.14-3.09-8.14-8.14v-6.73h34.52v-5.75h-34.52v-13.61
			h35.92v-5.75h-47.99v31.99c0,8.56,3.37,13.61,14.31,13.61L355.08,444.68L355.08,444.68z"/>
		<path id="path3250" class="st29" d="M406.58,397.68c-19.92,0-36.2,9.82-36.2,24.55c0,15.43,16.28,23.85,36.2,23.85
			c19.92,0,36.2-8.42,36.2-23.85C442.92,407.5,426.64,397.68,406.58,397.68 M406.58,441.03c-13.47,0-22.73-7.3-22.73-18.8
			c0-12.63,10.24-18.94,22.73-18.94c12.49,0,22.59,6.31,22.59,18.94C429.31,433.6,420.19,441.03,406.58,441.03"/>
		<path id="path3254" class="st29" d="M452.6,405.53h23.71v39.15h11.93v-39.15h23.71v-6.59H452.6V405.53z"/>
	</g>
</g>
</svg>
