<?xml version="1.0" standalone="no"?>
<!DOCTYPE svg PUBLIC "-//W3C//DTD SVG 20010904//EN"
 "http://www.w3.org/TR/2001/REC-SVG-20010904/DTD/svg10.dtd">
<svg version="1.0" xmlns="http://www.w3.org/2000/svg"
 width="189.000000pt" height="195.000000pt" viewBox="0 0 189.000000 195.000000"
 preserveAspectRatio="xMidYMid meet">
<metadata>
Created by potrace 1.10, written by Peter Selinger 2001-2011
</metadata>
<g transform="translate(0.000000,195.000000) scale(0.100000,-0.100000)"
fill="#000000" stroke="none">
<path d="M805 1841 c-143 -54 -298 -176 -373 -294 -15 -24 -49 -66 -75 -94
-69 -73 -89 -103 -140 -206 -96 -196 -122 -329 -94 -483 8 -44 29 -108 45
-142 29 -58 134 -206 174 -245 10 -10 18 -21 18 -25 0 -14 133 -109 195 -140
142 -71 202 -87 360 -97 115 -7 256 11 317 41 15 8 42 14 61 14 19 0 40 7 47
15 7 8 19 15 26 15 16 0 128 83 187 139 21 20 50 56 64 81 15 25 43 68 64 95
21 28 48 79 61 115 21 60 23 81 22 250 0 159 -3 194 -21 251 -54 169 -148 297
-262 357 -34 18 -69 32 -79 32 -9 0 -30 7 -46 15 -37 20 -114 19 -253 -2 -132
-20 -175 -42 -153 -82 13 -25 22 -25 130 -2 81 18 200 13 271 -11 124 -42 226
-176 275 -363 26 -101 26 -348 1 -425 -47 -139 -101 -220 -205 -306 -73 -60
-136 -93 -240 -126 -90 -29 -288 -31 -377 -5 -313 93 -553 366 -573 653 -8
123 65 334 171 489 18 28 50 74 71 104 49 72 186 204 266 256 36 23 92 51 125
63 63 21 82 39 72 66 -9 22 -68 20 -132 -3z"/>
<path d="M1033 1691 c-46 -16 -88 -33 -95 -39 -7 -5 -42 -25 -78 -44 -155 -82
-166 -90 -253 -170 -23 -22 -50 -38 -64 -38 -34 0 -31 -37 5 -51 40 -15 82 1
195 76 54 36 100 65 102 65 2 0 41 22 87 49 82 48 167 85 221 96 32 6 42 24
33 60 -9 34 -46 33 -153 -4z"/>
<path d="M691 1024 c-44 -56 -7 -164 56 -164 38 0 83 53 83 100 0 80 -93 123
-139 64z"/>
<path d="M1144 1020 c-60 -24 -73 -112 -25 -161 17 -16 40 -29 54 -29 82 0
112 146 37 185 -33 17 -36 17 -66 5z"/>
<path d="M783 620 c-79 -15 -155 -43 -167 -63 -9 -15 -7 -22 12 -37 38 -31 82
-34 168 -10 159 45 376 36 497 -19 48 -22 112 -28 122 -11 19 31 -71 85 -210
123 -81 22 -336 32 -422 17z"/>
</g>
</svg>
