<?xml version="1.0" standalone="no"?>
<!DOCTYPE svg PUBLIC "-//W3C//DTD SVG 20010904//EN"
 "http://www.w3.org/TR/2001/REC-SVG-20010904/DTD/svg10.dtd">
<svg version="1.0" xmlns="http://www.w3.org/2000/svg"
 width="63.000000pt" height="65.000000pt" viewBox="0 0 63.000000 65.000000"
 preserveAspectRatio="xMidYMid meet">
<metadata>
Created by potrace 1.10, written by Peter Selinger 2001-2011
</metadata>
<g transform="translate(0.000000,65.000000) scale(0.050000,-0.050000)"
fill="#000000" stroke="none">
<path d="M476 1199 c-256 -135 -454 -542 -366 -753 228 -544 1040 -453 1067
120 16 335 -163 520 -446 460 -131 -29 -110 -63 33 -52 219 15 317 -94 332
-368 30 -537 -677 -653 -901 -148 -93 209 89 582 347 713 54 27 98 54 98 59 0
23 -96 5 -164 -31z"/>
<path d="M608 1090 c-148 -75 -261 -163 -239 -186 8 -8 56 11 108 41 51 31
144 80 207 110 63 30 115 66 115 80 1 40 -45 29 -191 -45z"/>
<path d="M460 651 c0 -59 55 -92 82 -49 28 44 11 87 -37 94 -37 6 -45 -3 -45
-45z"/>
<path d="M761 681 c-13 -9 -21 -37 -18 -63 10 -70 85 -66 93 4 7 56 -31 86
-75 59z"/>
<path d="M455 406 c-117 -30 -25 -63 170 -59 113 1 237 -5 275 -15 62 -15 67
-14 40 13 -64 63 -342 99 -485 61z"/>
</g>
</svg>
