<?xml version="1.0" standalone="no"?>
<!DOCTYPE svg PUBLIC "-//W3C//DTD SVG 20010904//EN"
 "http://www.w3.org/TR/2001/REC-SVG-20010904/DTD/svg10.dtd">
<svg version="1.0" xmlns="http://www.w3.org/2000/svg"
 width="51.000000pt" height="189.000000pt" viewBox="0 0 51.000000 189.000000"
 preserveAspectRatio="xMidYMid meet">
<metadata>
Created by potrace 1.10, written by Peter Selinger 2001-2011
</metadata>
<g transform="translate(0.000000,189.000000) scale(0.100000,-0.100000)"
fill="#000000" stroke="none">
<path d="M440 1878 c0 -7 -25 -80 -56 -163 -30 -82 -65 -175 -76 -205 -11 -30
-26 -71 -33 -90 -7 -19 -27 -73 -43 -120 -17 -47 -47 -130 -67 -185 -36 -98
-36 -101 -26 -175 14 -97 64 -534 78 -676 6 -68 9 -64 -65 -79 -39 -8 -92 -50
-92 -73 1 -51 80 -92 175 -92 118 0 171 51 126 123 -15 24 -24 63 -31 133 -9
91 -24 219 -50 444 -21 174 -31 306 -25 336 3 17 52 157 108 310 57 153 107
291 111 307 3 15 13 27 21 27 12 0 15 18 15 95 l0 95 -35 0 c-21 0 -35 -5 -35
-12z"/>
</g>
</svg>
