<?xml version="1.0" standalone="no"?>
<!DOCTYPE svg PUBLIC "-//W3C//DTD SVG 20010904//EN"
 "http://www.w3.org/TR/2001/REC-SVG-20010904/DTD/svg10.dtd">
<svg version="1.0" xmlns="http://www.w3.org/2000/svg"
 width="36.000000pt" height="55.000000pt" viewBox="0 0 36.000000 55.000000"
 preserveAspectRatio="xMidYMid meet">
<metadata>
Created by potrace 1.10, written by Peter Selinger 2001-2011
</metadata>
<g transform="translate(0.000000,55.000000) scale(0.100000,-0.100000)"
fill="#000000" stroke="none">
<path d="M283 531 c-42 -20 -119 -106 -148 -168 -9 -18 -20 -83 -26 -145 -7
-68 -17 -119 -25 -129 -29 -32 -7 -87 29 -73 20 7 25 35 31 183 4 98 8 120 33
169 37 74 109 150 151 158 18 4 32 10 32 15 0 14 -32 10 -77 -10z"/>
</g>
</svg>
