<?xml version="1.0" standalone="no"?>
<!DOCTYPE svg PUBLIC "-//W3C//DTD SVG 20010904//EN"
 "http://www.w3.org/TR/2001/REC-SVG-20010904/DTD/svg10.dtd">
<svg version="1.0" xmlns="http://www.w3.org/2000/svg"
 width="51.000000pt" height="189.000000pt" viewBox="0 0 51.000000 189.000000"
 preserveAspectRatio="xMidYMid meet">
<metadata>
Created by potrace 1.10, written by Peter Selinger 2001-2011
</metadata>
<g transform="translate(0.000000,189.000000) scale(0.100000,-0.100000)"
fill="#000000" stroke="none">
<path d="M0 1802 c0 -96 -3 -87 145 -487 43 -115 82 -225 87 -244 9 -32 1
-167 -22 -356 -20 -166 -41 -343 -50 -439 -7 -70 -16 -109 -31 -133 -45 -72 8
-123 126 -123 95 0 174 41 175 92 0 23 -53 65 -92 73 -74 15 -71 11 -65 79 14
142 64 579 78 676 10 74 10 77 -26 175 -20 55 -50 138 -67 185 -16 47 -36 101
-43 120 -7 19 -22 60 -33 90 -11 30 -46 123 -76 205 -31 83 -56 156 -56 163 0
6 -11 12 -25 12 -25 0 -25 -1 -25 -88z"/>
</g>
</svg>
