<?xml version="1.0" standalone="no"?>
<!DOCTYPE svg PUBLIC "-//W3C//DTD SVG 20010904//EN"
 "http://www.w3.org/TR/2001/REC-SVG-20010904/DTD/svg10.dtd">
<svg version="1.0" xmlns="http://www.w3.org/2000/svg"
 width="300.000000pt" height="417.000000pt" viewBox="0 0 300.000000 417.000000"
 preserveAspectRatio="xMidYMid meet">
<metadata>
Created by potrace 1.10, written by Peter Selinger 2001-2011
</metadata>
<g transform="translate(0.000000,417.000000) scale(0.100000,-0.100000)"
fill="#000000" stroke="none">
<path d="M1334 3937 c-2 -7 -3 -113 -2 -235 2 -122 0 -222 -3 -222 -4 0 -31
11 -61 24 -194 86 -465 31 -612 -123 l-29 -30 55 -63 c31 -35 74 -83 96 -108
l41 -45 35 36 c86 88 218 110 328 56 31 -15 69 -43 85 -61 67 -79 64 -72 61
-159 l-3 -81 -135 -23 c-160 -27 -184 -36 -214 -77 -62 -83 -30 -186 68 -220
l37 -13 -39 -11 c-46 -14 -75 -44 -91 -93 -22 -70 20 -149 90 -170 l40 -12
-37 -13 c-72 -25 -112 -92 -98 -163 9 -43 63 -99 103 -107 17 -4 31 -8 31 -11
0 -2 -17 -30 -38 -61 -95 -141 -302 -473 -330 -527 -170 -340 -91 -772 190
-1041 105 -101 246 -182 383 -219 82 -23 298 -31 389 -15 339 60 609 316 702
666 13 51 18 106 18 209 1 161 -14 231 -74 361 -43 94 -57 115 -317 481 -106
150 -193 275 -193 278 0 3 12 5 28 5 76 0 152 53 168 115 17 69 -29 147 -99
167 -30 8 -36 13 -22 15 69 13 125 75 125 137 0 64 -56 136 -106 136 -13 0
-24 5 -24 10 0 6 7 10 15 10 33 0 76 32 96 72 38 74 8 157 -68 193 -36 18 -42
18 -143 1 -58 -10 -117 -20 -132 -23 l-28 -5 -2 483 -3 484 -138 3 c-108 2
-139 0 -143 -11z m246 -485 l0 -458 -82 -12 c-46 -7 -93 -15 -105 -18 l-23 -6
0 476 0 476 105 0 105 0 0 -458z m-335 17 l60 -24 3 -128 c1 -70 1 -127 -2
-127 -2 0 -18 13 -35 29 -60 56 -116 76 -216 76 -97 0 -149 -18 -207 -73 l-27
-25 -70 74 c-64 69 -68 75 -53 92 31 35 127 91 196 114 99 32 261 29 351 -8z
m671 -508 c44 -27 60 -77 40 -124 -8 -20 -24 -41 -36 -47 -25 -13 -792 -150
-841 -150 -76 0 -118 106 -66 166 23 26 41 31 428 100 222 39 413 72 424 73
11 0 34 -8 51 -18z m14 -296 c34 -31 44 -79 24 -120 -9 -20 -24 -40 -33 -45
-9 -4 -172 -36 -361 -70 -190 -33 -367 -65 -393 -70 -84 -17 -116 -13 -148 19
-40 41 -41 101 -2 140 26 24 50 30 298 74 149 27 326 59 395 72 137 26 192 26
220 0z m-2 -290 c54 -45 50 -114 -8 -157 -18 -13 -134 -38 -420 -88 -217 -38
-408 -70 -423 -70 -44 0 -87 49 -87 98 0 42 27 87 58 96 9 3 184 35 387 71
204 36 375 67 380 69 32 13 86 4 113 -19z m-91 -343 c28 -42 128 -185 222
-317 252 -354 294 -451 294 -690 0 -102 -5 -147 -22 -210 -71 -264 -251 -472
-494 -573 -217 -91 -490 -81 -702 25 -176 88 -336 265 -409 451 -82 209 -77
468 12 665 22 48 354 581 378 606 2 2 50 12 106 22 57 10 118 21 137 25 l35 7
-21 -29 c-30 -43 -382 -591 -414 -646 -15 -25 -40 -79 -55 -120 -26 -68 -28
-83 -28 -213 0 -132 2 -145 31 -221 75 -197 221 -341 407 -400 354 -112 711
77 814 431 42 143 36 272 -17 411 -30 77 -36 87 -342 518 -112 159 -204 292
-204 295 1 3 25 9 55 13 30 4 75 12 100 17 25 5 50 9 55 10 6 0 33 -34 62 -77z
m-327 47 c0 -6 31 -54 68 -108 38 -53 155 -218 260 -368 244 -345 272 -404
272 -585 0 -265 -176 -498 -435 -574 -81 -24 -239 -24 -320 0 -149 44 -281
146 -358 277 -101 172 -114 391 -33 566 14 28 128 213 255 411 127 197 231
364 231 370 0 10 19 18 48 21 6 0 12 -4 12 -10z"/>
</g>
</svg>
