<svg width="353" height="581" viewBox="0 0 353 581" fill="none" xmlns="http://www.w3.org/2000/svg">
<rect x="176.337" y="34.6662" width="39" height="199.598" transform="rotate(45 176.337 34.6662)" fill="black" stroke="#FFFEFE" stroke-width="3" />
<rect x="34.5" y="1.5" width="39" height="578" rx="3.5" fill="black" stroke="#FFFEFE" stroke-width="3" />
<rect x="351.5" y="34.5" width="39" height="350" rx="3.5" transform="rotate(90 351.5 34.5)" fill="black" stroke="#FFFEFE" stroke-width="3"/>
<rect x="273" y="71" width="10" height="74" fill="black"/>
<circle id="body-part-1" cx="277.5" cy="195.5" r="48" stroke="#909090" stroke-width="5" opacity="0"/>
<rect id="body-part-2" x="275" y="246" width="5" height="131" fill="#909090" opacity="0"/>
<rect x="276" y="246.19" width="5" height="100" transform="rotate(-39.6353 276 246.19)" fill="#909090" opacity="0"/>
<rect x="274.796" y="243" width="5" height="100" transform="rotate(39.64 274.796 243)" fill="#909090" opacity="0"/>
<rect x="276" y="377.19" width="5" height="100" transform="rotate(-39.6353 276 377.19)" fill="#909090" opacity="0"/>
<rect x="274.796" y="374" width="5" height="100" transform="rotate(39.64 274.796 374)" fill="#909090" opacity="0"/>
</svg>
