<?xml version="1.0" standalone="no"?>
<!DOCTYPE svg PUBLIC "-//W3C//DTD SVG 20010904//EN"
 "http://www.w3.org/TR/2001/REC-SVG-20010904/DTD/svg10.dtd">
<svg version="1.0" xmlns="http://www.w3.org/2000/svg"
 width="141.000000pt" height="300.000000pt" viewBox="0 0 141.000000 300.000000"
 preserveAspectRatio="xMidYMid meet">
<metadata>
Created by potrace 1.10, written by Peter Selinger 2001-2011
</metadata>
<g transform="translate(0.000000,300.000000) scale(0.050000,-0.050000)"
fill="#000000" stroke="none">
<path d="M1160 5179 c0 -735 2 -781 35 -772 19 6 105 22 190 36 l155 25 0 746
0 746 -190 0 -190 0 0 -781z"/>
<path d="M478 5292 c-123 -35 -283 -124 -349 -193 l-54 -57 127 -139 128 -139
50 45 c186 172 448 170 641 -4 l99 -89 0 250 0 249 -105 45 c-130 56 -399 72
-537 32z"/>
<path d="M1310 4391 c-671 -121 -656 -117 -709 -185 -73 -92 -34 -239 75 -284
60 -25 1279 173 1373 223 180 96 101 361 -105 353 -30 -1 -315 -50 -634 -107z"/>
<path d="M1260 3930 c-642 -117 -631 -114 -671 -191 -66 -128 16 -279 151
-279 106 0 1225 199 1296 231 94 42 135 144 96 237 -59 142 -111 142 -872 2z"/>
<path d="M1300 3487 c-335 -59 -630 -122 -655 -139 -117 -76 -108 -250 15
-315 l70 -38 650 115 c755 134 832 170 762 354 -61 160 -74 160 -842 23z"/>
<path d="M1600 3107 c-82 -16 -152 -33 -156 -36 -4 -4 170 -258 387 -564 560
-793 617 -938 518 -1316 -262 -1007 -1691 -957 -1890 65 -59 305 0 500 292
957 118 185 286 449 374 585 l158 248 -87 -14 c-47 -7 -162 -28 -256 -45
l-170 -31 -263 -413 c-516 -811 -575 -1155 -295 -1722 614 -1243 2467 -850
2542 539 22 413 -44 567 -563 1301 -380 538 -327 498 -591 446z"/>
</g>
</svg>
