<?xml version="1.0" standalone="no"?>
<!DOCTYPE svg PUBLIC "-//W3C//DTD SVG 20010904//EN"
 "http://www.w3.org/TR/2001/REC-SVG-20010904/DTD/svg10.dtd">
<svg version="1.0" xmlns="http://www.w3.org/2000/svg"
 width="91.000000pt" height="222.000000pt" viewBox="0 0 91.000000 222.000000"
 preserveAspectRatio="xMidYMid meet">
<metadata>
Created by potrace 1.10, written by Peter Selinger 2001-2011
</metadata>
<g transform="translate(0.000000,222.000000) scale(0.100000,-0.100000)"
fill="#000000" stroke="none">
<path d="M570 2158 c0 -91 -7 -108 -41 -108 -33 0 -79 -16 -79 -28 0 -5 38 -8
84 -8 71 1 89 -2 113 -20 48 -35 74 -96 80 -182 7 -97 -7 -146 -54 -201 -100
-117 -282 -123 -404 -13 -64 57 -99 127 -99 198 0 112 142 316 241 345 36 11
50 31 30 43 -5 3 -36 -8 -70 -25 -77 -39 -160 -129 -209 -228 -32 -66 -37 -84
-37 -146 1 -77 14 -111 70 -181 41 -50 138 -103 205 -111 27 -3 50 -10 50 -16
0 -5 -15 -6 -36 -3 -42 8 -67 -7 -58 -36 5 -17 3 -19 -18 -13 -12 4 -33 13
-45 21 -34 21 -55 18 -51 -8 4 -32 61 -58 126 -58 28 0 52 -4 52 -10 0 -5 -8
-10 -18 -10 -30 0 -105 -55 -143 -107 -86 -115 -108 -186 -109 -348 0 -59 -3
-74 -21 -88 -30 -26 -23 -81 10 -85 37 -6 51 22 51 102 0 39 5 114 10 166 12
116 50 198 125 275 45 45 109 85 120 74 2 -3 5 -115 6 -249 l2 -245 -67 -183
-67 -183 16 -142 c8 -78 18 -152 20 -163 4 -17 -1 -23 -25 -28 -66 -13 -41
-66 31 -66 40 0 66 21 52 42 -4 7 -17 91 -28 187 l-21 174 51 143 c28 79 54
146 58 150 3 3 9 -7 13 -22 4 -16 23 -86 44 -155 l36 -127 -30 -169 c-17 -94
-36 -176 -43 -184 -14 -17 -7 -31 25 -48 26 -14 75 -7 92 14 14 16 -12 45 -41
45 -15 0 -19 5 -16 18 3 9 10 49 17 87 6 39 18 104 26 147 l15 76 -53 174 -52
173 -3 268 -4 268 28 -7 c130 -28 205 -141 234 -348 9 -69 8 -84 -6 -117 -15
-31 -15 -43 -5 -74 14 -42 35 -54 57 -33 18 18 19 60 4 188 -24 222 -87 344
-198 386 -41 16 -42 18 -23 31 27 19 25 41 -2 46 -23 3 -23 4 2 14 35 15 52
37 54 70 1 18 15 40 44 67 71 66 87 105 86 216 0 64 -5 107 -16 131 -24 55
-76 107 -118 120 -36 11 -38 13 -29 43 5 17 9 55 9 83 0 50 -2 53 -25 53 -24
0 -25 -3 -25 -62z m30 -658 c0 -14 -30 -27 -69 -31 -50 -6 -49 15 1 28 59 14
68 14 68 3z m-88 -64 c52 -23 53 -31 12 -55 -39 -24 -74 -20 -74 7 0 11 -9 18
-26 18 -31 2 -41 11 -27 25 6 6 18 6 37 -1 17 -6 25 -6 21 0 -7 11 3 32 13 27
4 -2 24 -11 44 -21z"/>
<path d="M445 2094 c-68 -35 -165 -97 -165 -107 0 -24 38 -13 113 33 46 28
102 57 123 65 21 7 40 18 42 24 7 20 -62 11 -113 -15z"/>
<path d="M344 1834 c-9 -34 18 -64 44 -48 22 14 27 41 12 59 -20 24 -49 18
-56 -11z"/>
<path d="M514 1836 c-11 -29 1 -61 23 -64 29 -4 48 30 33 58 -12 23 -48 27
-56 6z"/>
<path d="M348 1678 c-21 -6 -38 -14 -38 -19 0 -18 49 -29 78 -18 44 18 162 15
201 -5 25 -13 36 -15 45 -6 39 39 -180 76 -286 48z"/>
<path d="M860 656 c0 -2 6 -16 14 -30 11 -22 15 -24 20 -11 8 23 8 23 -14 35
-11 6 -20 9 -20 6z"/>
<path d="M776 549 c-16 -19 -24 -38 -21 -49 4 -14 1 -16 -19 -13 -13 3 -27 -1
-31 -8 -6 -9 -3 -10 10 -5 10 3 28 0 41 -9 15 -9 25 -11 29 -5 4 6 1 9 -5 8
-24 -6 -19 51 7 82 13 17 23 30 20 30 -3 0 -17 -14 -31 -31z"/>
<path d="M868 489 c-24 -25 -23 -31 8 -60 25 -22 26 -23 15 -2 -6 12 -16 23
-23 26 -9 3 -6 12 11 31 14 14 20 26 15 25 -5 0 -17 -9 -26 -20z"/>
<path d="M723 433 c9 -2 17 -11 17 -19 0 -20 -30 -30 -41 -13 -6 10 -9 11 -9
1 0 -20 30 -26 47 -9 19 19 10 47 -14 46 -17 -1 -17 -2 0 -6z"/>
</g>
</svg>
