<svg xmlns="http://www.w3.org/2000/svg" xmlns:xlink="http://www.w3.org/1999/xlink" version="1.1" x="0px" y="0px" viewBox="0 0 100 125" enable-background="new 0 0 100 100" xml:space="preserve"><path fill-rule="evenodd" clip-rule="evenodd" d="M75.74,82.929c-1.69-0.396-4.358-0.408-7.581-0.212  c-1.711-9.693-0.531-19.456-0.062-29.246c0.254-5.305-0.035-10.769,0.213-16.421c0.128-2.886-0.26-5.823-0.213-8.744  c0.064-4.068,0.925-8.78,0.723-13.578c0.072,0.011,0.146,0.021,0.219,0.033c0.322-1,0.771-2.155,0.092-3.417  c-0.563-0.276-1.198-0.466-1.781-0.582c-0.076-0.105-0.18-0.167-0.317-0.157c0.001,0.034,0.002,0.067,0.003,0.102  c-0.403-0.063-0.77-0.086-1.053-0.074c-9.587,0.448-22.979,0.986-33.236,1.384c-0.515-0.085-1.094-0.087-1.404,0.183  c0.333,1.896,0.259,4.245,0.307,6.426c0.043,1.942-0.066,3.722,0.474,4.948c-2.578,0.459-3.928,1.477-5.093,2.688  c-1.703,1.771-2.157,3.686-1.927,6.502c0.328,4.009,4.444,6.713,8.625,6.958c-0.012,0.341-0.024,0.686-0.039,1.036  c-1.515-0.152-3.393,2.385-4.042,3.157c-2.74,3.258-3.981,5.542-5.924,7.404c-1.326,1.271,0.74,3.703,1.917,2.879  c1.341-1.546,2.75-3.995,4.475-6.119c1.373-1.689,2.683-3.231,3.43-4.149c-0.255,5.09-0.612,10.613-0.657,15.027  c-0.007,0.659-0.07,2.065-0.052,3.464c-1.058,1.612-5.327,8.301-6.639,11.024c-1.258,2.61-3.863,5.867,0.34,5.791  c0.895,0.106,2.464-4.853,4.139-7.71c1.078-1.843,2.32-3.239,3.384-4.956c0.566,0.302,1.268,0.358,1.667-0.199  c0.724,1.069,1.616,2.061,2.419,2.988c1.913,2.214,4.238,8.622,6.904,9.506c0.667,0.149,1.846-0.288,1.407-1.555  c-0.666-1.925-4.956-8.124-6.937-10.086c-1.396-1.382-2.748-2.813-3.6-4.639c-0.037-5.496-0.063-11.344,0.167-16.424  c0.034-0.754,0.088-1.431,0.131-2.096c0.968,0.825,2.201,1.538,2.686,1.922c2.667,2.117,4.319,5.271,7.53,6.494  c0.838-0.126,1.727-0.497,1.06-1.607c-1.511-2.004-6.192-6.26-8.524-8.202c-0.676-0.563-1.839-1.539-2.748-1.789  c-0.034-0.405-0.086-0.833-0.157-1.293c1.026-0.181,2.014-0.528,2.9-1.068c3.268-1.991,5.597-6.465,3.531-10.973  c-1.453-3.17-4.905-4.101-7.826-4.177c0.108-0.996-0.055-2.516-0.208-4.146c-0.144-1.522-0.367-3.119-0.567-4.42  c9.336,1.022,21.478-1.241,31.533-0.476c0.437,3.789-0.093,9.102-0.314,13.547c-0.493,9.9,0.271,19.206,0,28.364  c-0.262,8.781-1.911,17.979,0.357,26.672c-4.275,0.363-9.216,0.97-14.052,1.506c-9.354,1.037-18.316,1.739-20.891,2.346  c-1.102,0.986-0.102,2.542,1.792,2.623c2.029,0.089,5.191-0.835,6.952-0.916c8.977-0.417,19.197-1.571,26.872-2.56  c3.036-0.391,6.443-0.817,9.598-0.213C77.188,85.311,76.854,83.532,75.74,82.929z M39.391,27.433c3.992,2.497,0.663,7.26-3.661,8.79  c-2.222,0.786-4.917,0.138-6.576-0.898c-2.618-1.637-2.087-4.959,0.17-6.987c1.202-1.08,3.156-1.729,4.406-2  C36.133,25.816,37.711,26.382,39.391,27.433z"/><text x="0" y="115" fill="#000000" font-size="5px" font-weight="bold" font-family="'Helvetica Neue', Helvetica, Arial-Unicode, Arial, Sans-serif">Created by Sembodo Tioss Halala</text><text x="0" y="120" fill="#000000" font-size="5px" font-weight="bold" font-family="'Helvetica Neue', Helvetica, Arial-Unicode, Arial, Sans-serif">from the Noun Project</text></svg>