<?xml version="1.0" standalone="no"?>
<!DOCTYPE svg PUBLIC "-//W3C//DTD SVG 20010904//EN"
 "http://www.w3.org/TR/2001/REC-SVG-20010904/DTD/svg10.dtd">
<svg version="1.0" xmlns="http://www.w3.org/2000/svg"
 width="64.000000pt" height="64.000000pt" viewBox="0 0 64.000000 64.000000"
 preserveAspectRatio="xMidYMid meet">
<metadata>
Created by potrace 1.10, written by Peter Selinger 2001-2011
</metadata>
<g transform="translate(0.000000,64.000000) scale(0.050000,-0.050000)"
fill="#000000" stroke="none">
<path d="M440 1248 c-683 -249 -522 -1240 200 -1237 822 3 852 1212 31 1261
-99 6 -168 -1 -231 -24z m149 -439 c42 -43 39 -115 -7 -157 -38 -35 -38 -36
10 -106 62 -92 61 -106 -11 -106 -47 0 -67 15 -103 80 -25 44 -57 80 -72 80
-17 0 -26 -27 -26 -80 0 -76 -3 -80 -60 -80 l-60 0 0 200 0 200 149 0 c108 0
157 -8 180 -31z m415 -13 l44 -43 -55 -19 c-43 -14 -64 -10 -93 16 -21 19 -52
30 -69 23 -58 -22 -31 -50 79 -82 153 -45 188 -115 101 -202 -73 -73 -232 -70
-306 5 l-54 53 56 19 c46 15 63 11 95 -24 46 -49 84 -53 116 -15 30 36 -2 62
-113 92 -193 51 -151 221 55 221 76 0 110 -10 144 -44z"/>
<path d="M394 767 c-35 -35 -13 -87 37 -87 43 0 90 48 66 68 -19 18 -91 31
-103 19z"/>
</g>
</svg>
